<svg width="601" height="228" viewBox="0 0 601 228" fill="none" xmlns="http://www.w3.org/2000/svg">
<path d="M438.8 91.6001C433.4 47.1001 465.1 6.60004 509.7 1.20004C514.7 0.600042 519.7 0.500048 524.7 0.800048C525 52.2 508.5 101.5 438.8 91.6001ZM522.4 60.4C528.8 43.1 530.3 22.1001 529.3 1.10005C534.2 1.70005 539 2.70004 543.7 4.20004C539.6 22.4 533.1 42.5 522.4 60.4ZM525.4 71.6001C537.6 50.9001 544.3 26.9001 547.9 5.60005C554.2 7.90005 560.2 11.1 565.7 14.9C554 35 540.5 54.0001 525.4 71.6001ZM516.1 111.5C545.3 90.7 578.9 82.4 600.7 79C601 86.6 600.2 94.2 598.3 101.5C573.6 99.5 542.4 100.1 516.1 111.5ZM513.7 122.8C539.2 107.1 571.5 104.2 597.3 105C595.1 112.4 591.8 119.5 587.6 126C562.2 119.8 535.2 116.8 513.7 122.8ZM487.3 156.4C503.9 123.2 545.3 121.7 585.1 129.6C562.7 160.3 522.1 171.4 487.3 156.4ZM595 52.4C571.8 61.4 549.6 72.9 528.9 86.7C553.2 63.6 573.2 44.2 584.4 33.4C588.7 39.2 592.3 45.6 595 52.4ZM596 54.5C598.5 61.5 600 68.8001 600.5 76.1001C580.8 78.3001 551.2 83.7001 523.5 98.2001C545.9 80.8001 570.2 66.2 596 54.5ZM525.4 82C541.9 61.9 556.2 40.2001 568.2 17.1001C573.6 21.2001 578.6 26 582.8 31.3C571.1 41.3 550.3 59.8 525.4 82ZM438.8 91.6001C433.4 47.1001 465.1 6.60004 509.7 1.20004C514.7 0.600042 519.7 0.500048 524.7 0.800048C525 52.2 508.5 101.5 438.8 91.6001ZM522.4 60.4C528.8 43.1 530.3 22.1001 529.3 1.10005C534.2 1.70005 539 2.70004 543.7 4.20004C539.6 22.4 533.1 42.5 522.4 60.4ZM525.4 71.6001C537.6 50.9001 544.3 26.9001 547.9 5.60005C554.2 7.90005 560.2 11.1 565.7 14.9C553.9 35 540.5 54.0001 525.4 71.6001ZM516 111.5C545.2 90.7 578.9 82.4 600.6 79C600.9 86.6 600.1 94.2 598.2 101.5C573.6 99.5 542.4 100.1 516 111.5ZM513.7 122.8C539.2 107.1 571.5 104.2 597.3 105C595.1 112.4 591.8 119.5 587.6 126C562.2 119.8 535.2 116.8 513.7 122.8ZM487.3 156.4C503.9 123.2 545.3 121.7 585.1 129.6C562.7 160.3 522.1 171.4 487.3 156.4ZM594.9 52.4C571.7 61.4 549.5 72.9 528.8 86.8C553.1 63.7 573.1 44.3 584.3 33.5C588.7 39.2 592.3 45.6 594.9 52.4ZM596 54.4C598.5 61.4 600 68.7 600.5 76C580.8 78.2 551.2 83.6001 523.5 98.1001C545.9 80.8001 570.2 66.1 596 54.4ZM525.3 81.9C541.8 61.8 556.1 40.1 568.1 17C573.5 21.1 578.5 25.9 582.7 31.2C571.1 41.3 550.3 59.8 525.3 81.9Z" fill="#F15A22"/>
<path d="M158.1 227.8C160.4 218.8 160.9 217.5 164.3 205.1L178.5 152.2C187.3 119.4 180.6 106.5 149.8 106.5H52.4999L46.2999 130.2H146.5C155 130.2 156.3 132.5 154.8 138C153.2 143.7 153.2 143.9 152.2 147.6H50.1999C22.7999 147.6 10.6999 164.4 5.29993 184.3L3.49993 191.3C-3.20007 216.6 1.39993 228 28.7999 228H158.1V227.8ZM140.3 192.1C137.2 203.2 135.3 204 126.8 204H40.3999C31.0999 204 27.6999 202.4 30.0999 193.7L33.4999 181.3C35.7999 172.5 39.8999 171 49.1999 171H146L140.3 192.1ZM253.5 227.8L260 204H222.8C212 204 211.2 201.9 213.2 194.2L230.2 130.2H276.2L282.7 106.4H236.7L243.7 80.1H216.3L186.9 189.8C178.9 220 193.6 227.7 213 227.7H253.5V227.8ZM336 89.4L343 62.5H316.7L309.7 89.4H336ZM299.3 227.8L331.9 106.5H304.5L271.9 227.8H299.3ZM479.2 190.8C484.9 169.4 473.5 154.1 453.1 154.1H373.8C367.4 154.1 363.5 148.9 365.3 142.8C367.1 136.3 373.8 130.4 380 130.4H484.9L491 106.6H385.2C365.4 106.6 345.7 122.9 340.5 142.7C335.1 162.3 347.2 178.6 366.8 178.6L445.3 178.9C452.3 178.9 456.4 183.8 454.6 190.8C452.6 198.2 446 203.4 438.3 203.7H332L325.6 227.7L433 227.4C453.3 227.5 473.7 211.2 479.2 190.8Z" fill="#005496"/>
</svg>
