<svg width="200" height="60" viewBox="0 0 200 60" fill="none" xmlns="http://www.w3.org/2000/svg">
<path fill-rule="evenodd" clip-rule="evenodd" d="M40.5917 0.0725726C38.0741 0.209877 34.531 0.78891 32.3066 1.42646C30.6594 1.89864 28.0322 2.79752 27.1968 3.17485C26.4792 3.49891 26.3051 3.57635 25.4649 3.94525C24.4963 4.37052 23.0009 5.12502 22.1436 5.62105C21.7575 5.84446 21.4267 6.02724 21.4083 6.02724C21.334 6.02724 19.442 7.21337 18.5125 7.84273C14.5806 10.5049 11.0479 13.711 8.42379 16.9989C6.78201 19.0559 6.00827 20.1449 5.02178 21.7867C3.93686 23.5925 3.46889 24.4952 2.47604 26.6985C1.44446 28.9876 0.519106 32.3696 0.192103 35.0465C0.00407409 36.5853 -0.0580987 39.0263 0.0624305 40.1388C0.286634 42.208 0.78807 44.4876 1.27599 45.656C1.40487 45.9645 1.63837 46.521 1.795 46.8927C2.84518 49.3853 5.00317 52.242 7.14336 53.9727C7.38386 54.1673 7.59853 54.3463 7.62039 54.3707C7.79737 54.5679 9.09926 55.472 9.82434 55.9013C12.255 57.3401 14.5293 58.2154 17.3995 58.8167C19.33 59.2213 20.2151 59.3543 21.6281 59.4527C29.1788 59.9781 37.2018 58.0109 44.7292 53.7884L45.8622 53.1528V51.9309C45.8622 51.2588 45.8411 50.7089 45.8154 50.7089C45.7896 50.7089 45.0472 51.0643 44.1656 51.4986C42.3291 52.4034 41.663 52.684 39.7801 53.3457C35.7549 54.7602 32.1361 55.3975 28.1326 55.3971C26.81 55.3969 26.0498 55.3346 24.2369 55.0775C21.748 54.7248 19.4568 54.0143 17.3228 52.9337C12.4083 50.4451 9.16422 46.4722 7.81899 41.2946C7.53023 40.1833 7.39428 39.2427 7.28679 37.6121C7.12945 35.2268 7.35071 33.1513 8.06029 30.3557C8.4307 28.8962 8.54742 28.54 9.167 26.9767C10.4521 23.7343 12.4772 20.4424 14.9626 17.5554C15.8122 16.5686 18.2101 14.1424 19.0176 13.4525C21.0336 11.7304 23.6447 9.88004 25.6282 8.76817C25.9343 8.5966 26.3279 8.37549 26.5028 8.27683C28.5301 7.13339 32.3519 5.60515 34.8905 4.92284C36.8983 4.38316 39.5742 3.93555 41.5948 3.80142C43.7202 3.66022 46.955 3.85795 48.7313 4.23751C49.0554 4.30684 49.428 4.3842 49.5592 4.40956C50.0092 4.49661 51.9445 5.08694 52.6996 5.36751C55.1684 6.285 57.4156 7.71052 59.3458 9.58373C60.389 10.5961 60.7445 11.0193 61.5337 12.1889C62.4939 13.612 62.9117 14.3915 63.4051 15.681C65.0843 20.0693 64.9828 26.1933 63.1409 31.6278C62.1115 34.6648 60.6822 37.3095 58.6344 39.9662C57.6139 41.2903 55.5433 43.4129 54.0145 44.7024L53.5478 45.096L53.7796 45.1581C53.9071 45.1924 54.6554 45.3144 55.4425 45.4293C56.7376 45.6185 57.0284 45.6344 58.5034 45.5972C59.9664 45.5603 60.2787 45.5266 61.5531 45.2681C63.1626 44.9416 64.3676 44.5219 65.8418 43.774C69.4721 41.9329 72.4667 38.7788 73.9959 35.1859C74.5101 33.9779 74.701 33.4156 76.2702 28.4873C76.6043 27.4379 76.9093 26.4898 76.948 26.3805C76.9866 26.2711 77.2745 25.3767 77.5878 24.3928C77.9012 23.409 78.3834 21.9063 78.6596 21.0536C79.3229 19.006 80.446 15.5105 81.2016 13.1429C81.5364 12.0935 81.8598 11.0917 81.9201 10.9168C81.9804 10.7419 82.3019 9.74011 82.6345 8.69065C82.9671 7.64119 83.2706 6.69309 83.3089 6.58377C83.3472 6.47445 83.6351 5.58003 83.9485 4.59615C84.262 3.61228 84.6399 2.43355 84.7883 1.97679C84.9366 1.51996 85.058 1.1175 85.058 1.08236C85.058 1.04722 82.2927 1.01844 78.9128 1.01844H72.7675L72.5469 1.71411C72.4255 2.09676 72.1709 2.89277 71.9812 3.48309C71.6212 4.60267 70.7213 7.42016 70.178 9.12793C70.0041 9.67452 69.8306 10.2112 69.7923 10.3205C69.754 10.4298 69.4671 11.3242 69.1546 12.3081C68.8422 13.292 68.4131 14.6336 68.201 15.2895C67.989 15.9455 67.5783 17.2334 67.2882 18.1517C66.9983 19.07 66.733 19.8927 66.6989 19.98C66.6572 20.0867 66.6182 19.9173 66.5799 19.4632C66.4282 17.6621 66.0825 15.9749 65.5129 14.256C65.2742 13.5356 64.7844 12.325 64.6123 12.0299C64.5613 11.9424 64.3583 11.5667 64.1613 11.1951C63.8294 10.569 63.3243 9.7619 62.7186 8.88941C61.8454 7.63181 59.6008 5.44113 58.1854 4.46505C55.4865 2.604 51.9454 1.17538 48.4784 0.548886C46.6878 0.225301 46.091 0.15812 44.1926 0.0664506C42.399 -0.0201301 42.2892 -0.019971 40.5917 0.0725726ZM84.1485 23.2201C80.2606 35.4748 77.0657 45.5284 77.0488 45.5615C77.0319 45.5945 79.8005 45.6124 83.2013 45.6012L89.3847 45.5809L92.1376 36.8751C93.6518 32.0869 95.0043 27.8348 95.1433 27.4259C95.7338 25.6886 96.9491 24.1365 98.552 23.0727C99.5968 22.3791 101.427 21.813 102.469 21.8612C104.134 21.9382 105.4 23.4278 105.171 25.0412C105.124 25.3698 103.801 29.5731 101.873 35.5187C100.102 40.9796 98.6533 45.4865 98.6533 45.5341C98.6533 45.5957 100.434 45.6206 104.841 45.6206H111.028L114.821 33.7943C116.907 27.2898 118.613 21.8719 118.611 21.7545C118.61 21.637 118.646 21.4429 118.692 21.323C118.841 20.9302 118.921 19.6354 118.841 18.9152C118.648 17.19 118.052 15.9409 116.804 14.6431C115.899 13.7029 114.856 13.1026 113.521 12.7533C111.837 12.313 109.876 12.3118 107.501 12.7496C104.306 13.3389 101.22 14.8878 99.0049 17.014C98.4552 17.5417 98.3499 17.6151 98.4126 17.4268C98.4547 17.3008 99.583 13.6915 100.92 9.40619C102.257 5.12089 103.401 1.46263 103.462 1.27683L103.573 0.938936H97.3953H91.2175L84.1485 23.2201ZM37.3154 12.2227C32.7908 12.5112 29.476 13.5439 26.3624 15.6355C24.7957 16.6878 23.0721 18.2565 21.9814 19.6226C21.4003 20.3503 20.2209 22.0737 20.271 22.1219C20.2876 22.138 22.8416 22.4234 25.9462 22.7561C29.0509 23.0887 31.669 23.3693 31.7643 23.3797C31.8979 23.3942 32.0466 23.2519 32.415 22.7572C33.8171 20.8738 35.8823 19.8278 38.4058 19.7231C39.6484 19.6715 40.4512 19.8331 41.7668 20.3993L42.6406 20.7754L42.6976 21.1729C42.774 21.7051 42.6497 22.5241 42.3966 23.1562L42.1895 23.6736L41.1041 24.0282C38.7883 24.7848 34.5516 25.7413 28.9277 26.7773C25.3544 27.4354 23.5245 27.9768 21.394 29.0063C20.6831 29.3498 19.8425 29.8029 19.5259 30.0131C18.731 30.5412 16.807 32.4677 16.3253 33.2179C15.1068 35.1156 14.4852 37.336 14.6737 39.1182C14.8486 40.7737 15.5261 42.2356 16.6378 43.3568C18.2918 45.0248 20.2368 45.6177 24.0611 45.6198C26.7908 45.6213 28.9857 45.2322 31.4919 44.3023C33.1091 43.7024 35.6139 42.3219 36.9116 41.3154L37.1438 41.1353L37.0895 41.3307C36.9714 41.7556 36.9401 42.7514 37.0288 43.261C37.0798 43.5532 37.2144 44.007 37.3281 44.2693L37.5349 44.7461H43.496C48.6467 44.7461 49.4509 44.7306 49.413 44.6318C49.2473 44.1998 49.1747 43.7368 49.1754 43.1162C49.1762 42.4205 49.205 42.3094 50.2176 39.1012C50.7904 37.2865 51.7582 34.2634 52.3682 32.3831C55.5556 22.5582 55.4746 22.8452 55.4795 21.3597C55.4827 20.396 55.2561 18.9344 55.0009 18.271C54.0865 15.8947 52.1334 13.9659 49.8598 13.1936C48.795 12.8319 46.6639 12.4963 44.2323 12.3075C42.8489 12.2001 38.5055 12.1468 37.3154 12.2227ZM182.332 12.1951C179.235 12.3793 177.267 12.741 175.016 13.5396C173.712 14.002 172.952 14.3646 171.62 15.1591C169.83 16.2274 168.108 17.6896 166.795 19.2578C166.167 20.0067 164.746 22.0599 164.811 22.1228C164.828 22.1385 167.451 22.4335 170.641 22.7784L176.442 23.4056L177.047 22.647C178.14 21.2766 179.133 20.5815 180.691 20.0946C182.719 19.4611 184.383 19.5787 186.653 20.5159L187.238 20.7572L187.204 21.6806C187.176 22.4619 187.137 22.6863 186.95 23.1387L186.729 23.6736L185.617 24.037C185.006 24.2369 183.838 24.56 183.021 24.7552C182.205 24.9503 181.287 25.1787 180.981 25.2627C180.359 25.4334 177.888 25.9521 176.25 26.256C170.755 27.2752 170.11 27.4183 168.339 28.0093C165.313 29.0194 163.373 30.229 161.708 32.1446C160.898 33.0763 160.424 33.8191 159.999 34.8255C159.549 35.8881 159.425 36.2877 159.278 37.1439C158.888 39.4102 159.544 41.6614 161.058 43.2557C162.702 44.9877 164.713 45.6178 168.601 45.6198C171.332 45.6212 173.471 45.2366 176.091 44.2727C177.767 43.6559 179.957 42.4459 181.451 41.3116L181.684 41.1353L181.629 41.3307C181.515 41.7327 181.482 42.8125 181.568 43.2752C181.617 43.5376 181.752 43.9759 181.867 44.2492L182.078 44.7461H188.029C191.302 44.7461 193.98 44.7327 193.98 44.7163C193.98 44.6999 193.92 44.53 193.848 44.3387C193.759 44.1014 193.715 43.7251 193.71 43.156L193.704 42.3212L194.592 39.5782C195.625 36.3867 196.947 32.2047 198.011 28.7656C198.423 27.4319 198.954 25.7504 199.19 25.0289C199.745 23.3315 199.922 22.5558 199.986 21.5307C200.101 19.6855 199.506 17.6534 198.425 16.1942C197.944 15.5452 196.872 14.5161 196.241 14.0972C195.589 13.6649 194.516 13.2087 193.609 12.9786C192.729 12.7556 190.408 12.4319 188.812 12.3097C187.704 12.225 183.177 12.1449 182.332 12.1951ZM126.967 12.8845C126.878 13.1579 125.198 18.3723 123.234 24.4723C120.063 34.3201 119.638 35.7001 119.442 36.7837C119.259 37.7971 119.23 38.1344 119.27 38.7714C119.44 41.4883 120.962 43.7742 123.327 44.8671C124.696 45.4998 126.932 45.7684 128.984 45.5468C130.19 45.4166 132.05 44.9869 133.24 44.5634C135.409 43.7915 137.805 42.3594 139.3 40.9416C139.552 40.7032 139.757 40.5329 139.757 40.5632C139.757 40.5936 139.471 41.5187 139.121 42.6191C138.771 43.7195 138.485 44.6483 138.485 44.6829C138.485 44.7177 141.231 44.7454 144.587 44.7446L150.689 44.7431L155.919 28.625C158.795 19.76 161.147 12.48 161.146 12.4473C161.145 12.4145 158.361 12.3876 154.959 12.3876H148.775L145.81 21.63C144.18 26.7134 142.738 31.1281 142.606 31.4405C142.475 31.7529 142.219 32.2359 142.038 32.5139C141.555 33.2564 140.389 34.4262 139.677 34.883C138.602 35.5726 137.18 36.0776 135.977 36.1965C134.411 36.3515 133.078 35.2006 132.951 33.5832C132.896 32.8821 132.595 33.8925 136.373 22.0771C138.059 16.8024 139.439 12.4644 139.439 12.4372C139.439 12.4099 136.669 12.3876 133.284 12.3876H127.129L126.967 12.8845ZM40.2534 30.1768C40.1901 30.3846 40.0661 30.8088 39.978 31.1196C39.1675 33.9793 37.4105 36.2115 34.9943 37.4513C33.6189 38.157 32.5712 38.4553 30.7374 38.6631C30.2284 38.7209 29.1946 38.5899 28.7687 38.4139C28.1131 38.1429 27.4961 37.2828 27.3796 36.4776C27.2226 35.392 28.3713 33.6955 29.7344 32.9999C30.9801 32.3641 33.1672 31.6731 36.3216 30.9187C37.9475 30.5299 38.8429 30.2839 39.8198 29.9577C40.0603 29.8774 40.2822 29.8089 40.3129 29.8054C40.3436 29.802 40.3169 29.9691 40.2534 30.1768ZM184.793 30.1768C184.73 30.3846 184.604 30.8143 184.514 31.1319C183.376 35.1487 180.334 37.8644 176.176 38.5755C174.018 38.9448 172.726 38.5189 172.157 37.2504C171.792 36.4354 171.836 35.8331 172.333 34.8511C172.606 34.3103 173.549 33.3886 174.183 33.0408C175.321 32.4171 177.501 31.7275 181.14 30.8404C182.691 30.462 184.674 29.9085 184.75 29.8322C184.874 29.7092 184.892 29.8544 184.793 30.1768ZM71.5422 51.2521C69.8053 51.6979 68.7606 53.0698 68.629 55.0779C68.4238 58.2088 70.6476 60.2083 73.6316 59.576C73.9282 59.5131 74.3489 59.3648 74.5667 59.2462C75.2874 58.8539 76.0016 57.9322 76.1917 57.1488C76.2383 56.9568 76.2121 56.9419 75.4216 56.7115C74.9714 56.5803 74.5723 56.473 74.5347 56.473C74.497 56.473 74.3949 56.6641 74.3078 56.8976C73.6329 58.7068 71.3041 58.5697 70.5782 56.6781C70.0195 55.222 70.5775 53.3454 71.7286 52.8094C72.2753 52.5549 72.8754 52.5537 73.4106 52.806C73.8742 53.0247 74.1099 53.2587 74.2824 53.6716C74.3506 53.835 74.4395 53.9686 74.4799 53.9686C74.5954 53.9686 76.1713 53.5798 76.2091 53.542C76.2277 53.5234 76.1152 53.2388 75.959 52.9097C75.5344 52.0149 74.8898 51.5108 73.8105 51.2297C73.2062 51.0723 72.2042 51.0821 71.5422 51.2521ZM97.7621 51.2599C96.4512 51.6135 95.4601 52.7287 95.0639 54.2958C94.6984 55.741 95.0153 57.2423 95.9085 58.2972C96.6388 59.1596 97.5134 59.5778 98.7749 59.6677C100.002 59.7551 101.357 59.2155 102.08 58.3509C102.427 57.935 102.922 56.8672 103.021 56.3192C103.369 54.3871 102.517 52.4074 100.992 51.6045C100.029 51.0974 98.8364 50.9701 97.7621 51.2599ZM112.861 51.2719C111.693 51.605 110.941 52.3557 110.4 53.7301C110.089 54.5205 109.992 55.0768 110.052 55.7246C110.166 56.9477 110.495 57.7398 111.193 58.4707C112.199 59.5247 113.712 59.9221 115.236 59.5325C116.334 59.2517 117.144 58.619 117.69 57.6152C118.37 56.3671 118.384 54.4835 117.723 53.2428C117.38 52.6002 116.615 51.8238 116.065 51.5596C115.081 51.0874 113.884 50.98 112.861 51.2719ZM122.346 51.2179C121.337 51.502 120.448 52.2112 120.004 53.0861C119.106 54.8595 119.398 57.2816 120.666 58.5744C121.747 59.6775 123.6 59.9969 125.191 59.3546L125.685 59.1549V59.3842V59.6134H126.361H127.037V57.3476V55.0817H125.248H123.459V55.7972V56.5128H124.572H125.685V57.0128V57.5127L125.258 57.7718C124.971 57.9451 124.649 58.059 124.284 58.1159C122.379 58.4125 121.277 57.5589 121.171 55.7042C121.083 54.1614 121.52 53.2202 122.531 52.7737C123.636 52.2857 124.896 52.6474 125.377 53.5907C125.506 53.8441 125.57 53.8955 125.71 53.8612C125.806 53.8378 126.127 53.7743 126.425 53.72C126.95 53.6244 126.965 53.6149 126.917 53.4173C126.709 52.5734 126.09 51.7919 125.346 51.4346C124.693 51.1215 123.098 51.0063 122.346 51.2179ZM53.5741 51.9412V52.6965H54.7667H55.9593V56.1152V59.5339H56.7941H57.6289V56.1152V52.6965H58.8215H60.014V51.9412V51.1859H56.7941H53.5741V51.9412ZM61.5246 55.3599V59.5339H64.6253H67.726V58.8184V58.1029H65.4999H63.2737V57.0295V55.9562H65.2613H67.249V55.2009V54.4456H65.2613H63.2737V53.5711V52.6965H65.4203H67.567V51.9412V51.1859H64.5458H61.5246V55.3599ZM77.7436 55.3599V59.5339H78.5784H79.4132V57.7451V55.9562H81.2418H83.0704V57.7451V59.5339H83.9052H84.74V55.3599V51.1859H83.9052H83.0704V52.8555V54.5251H81.2418H79.4132V52.8555V51.1859H78.5784H77.7436V55.3599ZM86.5686 55.3599V59.5339H87.3626H88.1566L88.1776 56.9181L88.1985 54.3021L89.9921 56.8982L91.7857 59.4942L92.5959 59.5168L93.406 59.5395V55.3627V51.1859H92.612H91.818L91.7971 53.9017L91.7762 56.6174L89.9187 53.9017L88.0612 51.1859H87.3149H86.5686V55.3599ZM127.452 51.3225C127.473 51.4004 128.121 52.4951 128.893 53.7552L130.296 56.0461V57.7901V59.5339H131.171H132.045V57.8025V56.071L133.476 53.7057C134.264 52.4048 134.908 51.3057 134.908 51.2632C134.908 51.2175 134.522 51.1859 133.963 51.1859H133.019L132.121 52.776C131.627 53.6506 131.202 54.3645 131.177 54.3624C131.152 54.3603 130.734 53.6537 130.249 52.7922L129.367 51.2257L128.391 51.2033C127.487 51.1825 127.417 51.1914 127.452 51.3225ZM104.298 55.3997V59.5339H106.962H109.625V58.8184V58.1029H107.836H106.047V54.6842V51.2654H105.173H104.298V55.3997ZM100.045 52.875C100.524 53.1201 100.718 53.3227 100.986 53.8582C101.445 54.7764 101.436 55.972 100.963 56.896C100.493 57.8147 99.9826 58.1397 99.0111 58.1401C98.2782 58.1405 98.0109 58.0321 97.4762 57.5178C96.4354 56.5168 96.3995 54.5248 97.4007 53.3231C97.6661 53.0045 97.9007 52.852 98.4148 52.6636C98.7154 52.5536 99.6542 52.6753 100.045 52.875ZM114.811 52.7002C115.223 52.8147 115.733 53.2256 115.997 53.6563C116.857 55.0591 116.423 57.2671 115.16 57.9168C114.034 58.4954 112.694 58.037 112.133 56.8818C111.325 55.2179 112.009 53.1509 113.52 52.6913C113.815 52.6018 114.473 52.6063 114.811 52.7002Z" fill="#E60012"/>
</svg>
