<svg width="479" height="64" viewBox="0 0 479 64" fill="none" xmlns="http://www.w3.org/2000/svg">
<path d="M372.915 1.92511C361.57 1.54832 349.302 8.07905 343.485 20.3698C339.875 27.3065 337.121 35.0309 335.29 42.6118C335.124 43.2825 334.974 43.9525 334.831 44.6193C334.646 45.6969 334.632 47.0801 334.73 48.4932C335.179 54.4615 340.479 61.6762 349.213 62.087H355.118H355.183H359.575C370.916 62.4638 383.178 55.9328 388.999 43.6421C392.609 36.7017 395.363 28.9713 397.194 21.3943C397.356 20.7197 397.514 20.0496 397.653 19.3865C397.842 18.3053 397.855 16.9256 397.754 15.5129C397.305 9.54067 392.005 2.33203 383.271 1.92511H377.295H372.915ZM178.394 2.47853L183.034 61.5041H185.918H191.735H192.335C192.32 61.501 192.297 61.5041 192.282 61.5041C192.347 61.5041 192.41 61.5041 192.471 61.5041H192.83C194.68 61.4468 196.333 60.481 197.316 59.0079H197.322L235.248 2.47853H225.439L198.27 43.0534L195.085 2.47853H178.394ZM242.024 2.47853L220.259 61.5041H236.967L258.726 2.47853H242.024ZM281.227 2.47853C266.22 2.6624 259.588 19.3576 267.786 30.0543C271.946 35.1334 277.885 40.4002 281.239 45.9615C283.364 48.9683 281.091 53.984 277.029 54.0332H268.781H250.531L247.787 61.5041H281.339C294.489 61.4649 303.386 45.9811 294.562 34.1049C290.489 28.0875 284.029 23.9812 280.209 18.1033C277.937 15.0363 280.221 10.0022 284.324 9.94941H292.831H308.985L311.735 2.47853H281.227ZM323.297 2.47853L301.544 61.5041H318.246L340.005 2.47853H323.297ZM413.478 2.47853L391.625 61.5041H400.232L415.292 20.8231L415.368 21.5532L428.897 58.0895C429.707 60.0111 431.569 61.3871 433.754 61.5041H441.625L463.485 2.47853H454.878L440.106 42.3703L424.382 2.47853H422.086H413.478ZM376.73 8.03022C379.88 8.27136 382.382 10.9212 382.382 14.1353C382.406 14.9266 382.269 15.7073 381.976 16.4195L370.937 46.4797C368.71 52.2484 363.534 55.7833 357.385 55.9641H355.754C352.604 55.723 350.102 53.0731 350.102 49.859C350.078 49.0678 350.217 48.2774 350.514 47.5691L361.547 17.5086C363.777 11.7399 368.954 8.21318 375.111 8.03595H376.73V8.03022Z" fill="#6C6E71"/>
<path d="M23.5713 2.47846L1.80614 61.504H19.5444L29.9531 33.2747H51.0707L40.662 61.504H54.5206C56.8642 61.504 58.8779 60.0246 59.6955 57.9598C59.7045 57.9297 59.7136 57.9206 59.7256 57.9055L80.1603 2.47695H62.422L54.0444 25.2019H32.9268L41.3044 2.47695L23.5713 2.47846ZM91.4337 2.47846L69.6744 61.504H87.4068L109.166 2.47846H108.654H91.9518H91.4337ZM121.235 2.47846L99.4757 61.504H117.208L125.55 38.8674L129.983 35.4646L141.746 58.2718L141.752 58.2416C141.767 58.2718 141.773 58.2808 141.782 58.2959C142.747 60.2968 144.865 61.6158 147.204 61.4576C147.163 61.4576 147.118 61.4877 147.069 61.4877H162.129L143.396 25.1633L172.944 2.47363H159.691L130.785 24.6686L138.968 2.47363H121.236L121.235 2.47846Z" fill="#D71820"/>
<path d="M476.559 7.69602C476.559 10.9855 473.978 13.5627 470.621 13.5627C467.297 13.5627 464.649 10.9855 464.649 7.69602C464.649 4.47828 467.297 1.89746 470.621 1.89746C473.978 1.89746 476.559 4.47828 476.559 7.69602ZM466.133 7.69602C466.133 10.2771 468.04 12.3269 470.655 12.3269C473.202 12.3269 475.074 10.2771 475.074 7.73008C475.074 5.15288 473.202 3.06549 470.621 3.06549C468.04 3.06549 466.133 5.15288 466.133 7.69602ZM469.701 10.7368H468.36V4.93796C468.887 4.83246 469.63 4.76012 470.587 4.76012C471.679 4.76012 472.177 4.93796 472.599 5.18573C472.919 5.4329 473.164 5.89409 473.164 6.45926C473.164 7.09618 472.67 7.58962 471.962 7.80062V7.87296C472.527 8.08396 472.848 8.50957 473.025 9.28575C473.202 10.1713 473.307 10.5255 473.447 10.7365H472C471.822 10.5255 471.717 9.9941 471.54 9.32343C471.435 8.68681 471.08 8.40407 470.338 8.40407H469.701V10.7368ZM469.735 7.44734H470.372C471.114 7.44734 471.717 7.20319 471.717 6.59973C471.717 6.07223 471.329 5.71805 470.477 5.71805C470.127 5.71805 469.878 5.75121 469.735 5.78738V7.44734Z" fill="#6C6E71"/>
</svg>
