<svg width="180" height="180" viewBox="0 0 180 180" fill="none" xmlns="http://www.w3.org/2000/svg">
<path d="M58.0078 36.9141C60.9203 36.9141 63.2812 34.5531 63.2812 31.6406C63.2812 28.7282 60.9203 26.3672 58.0078 26.3672C55.0954 26.3672 52.7344 28.7282 52.7344 31.6406C52.7344 34.5531 55.0954 36.9141 58.0078 36.9141Z" fill="white"/>
<path d="M96.6797 0H19.3359C8.6741 0 0 8.6741 0 19.3359V63.2812H116.016V19.3359C116.016 8.6741 107.342 0 96.6797 0ZM26.3672 36.9141C23.4548 36.9141 21.0938 34.553 21.0938 31.6406C21.0938 28.7283 23.4548 26.3672 26.3672 26.3672C29.2795 26.3672 31.6406 28.7283 31.6406 31.6406C31.6406 34.553 29.2795 36.9141 26.3672 36.9141ZM58.0078 47.4609C49.2845 47.4609 42.1875 40.3639 42.1875 31.6406C42.1875 22.9173 49.2845 15.8203 58.0078 15.8203C66.7311 15.8203 73.8281 22.9173 73.8281 31.6406C73.8281 40.3639 66.7311 47.4609 58.0078 47.4609ZM89.6484 36.9141C86.7361 36.9141 84.375 34.553 84.375 31.6406C84.375 28.7283 86.7361 26.3672 89.6484 26.3672C92.5608 26.3672 94.9219 28.7283 94.9219 31.6406C94.9219 34.553 92.5608 36.9141 89.6484 36.9141Z" fill="white"/>
<path d="M0 73.8281V160.664C0 171.326 8.6741 180 19.3359 180H96.6797C107.342 180 116.016 171.326 116.016 160.664V73.8281H0ZM85.5088 150.496C84.5912 152.211 82.8042 153.281 80.8594 153.281H63.2812V158.555C63.2812 161.467 60.9202 163.828 58.0078 163.828C55.0955 163.828 52.7344 161.467 52.7344 158.555V153.281H35.1562C33.2114 153.281 31.4244 152.211 30.5068 150.496C29.5893 148.782 29.6898 146.701 30.7684 145.083C34.7889 139.052 36.9141 132.033 36.9141 124.785V121.641C36.9141 111.83 43.6468 103.562 52.7344 101.214V95.2734C52.7344 92.3611 55.0955 90 58.0078 90C60.9202 90 63.2812 92.3611 63.2812 95.2734V101.214C72.3688 103.562 79.1016 111.83 79.1016 121.641V124.785C79.1016 132.033 81.2268 139.052 85.2472 145.082C86.3258 146.701 86.4264 148.782 85.5088 150.496Z" fill="white"/>
<path d="M68.5546 121.641C68.5546 115.825 63.8233 111.094 58.0077 111.094C52.1922 111.094 47.4608 115.825 47.4608 121.641V124.785C47.4608 130.995 46.2501 137.074 43.9157 142.734H72.1001C69.7654 137.074 68.5546 130.995 68.5546 124.785V121.641Z" fill="white"/>
<path d="M132.559 95.2734C135.472 95.2734 137.833 92.9124 137.833 90C137.833 87.0876 135.472 84.7266 132.559 84.7266C129.647 84.7266 127.286 87.0876 127.286 90C127.286 92.9124 129.647 95.2734 132.559 95.2734Z" fill="white"/>
<path d="M162.39 125.104C161.04 125.104 159.69 124.59 158.661 123.56C156.602 121.5 156.602 118.161 158.661 116.102C165.62 109.143 169.453 99.8728 169.453 89.9999C169.453 80.1269 165.62 70.8569 158.661 63.8978C156.602 61.8383 156.602 58.4995 158.661 56.4401C160.72 54.3806 164.059 54.3806 166.119 56.4401C175.07 65.3912 180 77.3095 180 89.9999C180 102.69 175.07 114.608 166.119 123.56C165.089 124.589 163.739 125.104 162.39 125.104Z" fill="white"/>
<path d="M147.475 110.189C146.125 110.189 144.775 109.674 143.746 108.644C141.686 106.584 141.686 103.246 143.746 101.186C146.734 98.1983 148.379 94.2256 148.379 89.9999C148.379 85.7741 146.734 81.8015 143.746 78.8135C141.686 76.7541 141.686 73.4153 143.746 71.3559C145.805 69.2964 149.144 69.2964 151.204 71.3559C156.184 76.3361 158.926 82.9574 158.926 90.0002C158.926 97.0431 156.184 103.665 151.204 108.645C150.174 109.674 148.824 110.189 147.475 110.189Z" fill="white"/>
</svg>
