<svg width="180" height="180" viewBox="0 0 180 180" fill="none" xmlns="http://www.w3.org/2000/svg">
<g clip-path="url(#clip0_4_148)">
<path d="M82.5 103.125C82.5 100.028 79.965 97.5 76.875 97.5H48.75V120C48.75 124.14 45.39 127.5 41.25 127.5C37.11 127.5 33.75 124.14 33.75 120V97.5H5.625C2.5275 97.5 0 100.028 0 103.125V174.375C0 177.473 2.5275 180 5.625 180H76.875C79.965 180 82.5 177.473 82.5 174.375V103.125Z" fill="white"/>
<path d="M180 103.125C180 100.028 177.465 97.5 174.375 97.5H146.25V120C146.25 124.14 142.89 127.5 138.75 127.5C134.61 127.5 131.25 124.14 131.25 120V97.5H103.125C100.028 97.5 97.5 100.028 97.5 103.125V174.375C97.5 177.473 100.028 180 103.125 180H174.375C177.465 180 180 177.473 180 174.375V103.125Z" fill="white"/>
<path d="M131.25 5.625C131.25 2.535 128.715 0 125.625 0H97.5001V22.5C97.5001 26.64 94.1401 30 90.0001 30C85.86 30 82.5 26.64 82.5 22.5V0H54.375C51.2775 0 48.75 2.535 48.75 5.625V76.875C48.75 79.9725 51.2775 82.5 54.375 82.5H125.625C128.715 82.5 131.25 79.9725 131.25 76.875V5.625Z" fill="white"/>
</g>
<defs>
<clipPath id="clip0_4_148">
<rect width="180" height="180" fill="white"/>
</clipPath>
</defs>
</svg>
