<svg width="209" height="180" viewBox="0 0 209 180" fill="none" xmlns="http://www.w3.org/2000/svg">
<g clip-path="url(#clip0_4_95)">
<path d="M108.623 58.3872C120.552 58.9753 131.137 62.5036 141.639 67.1241C146.091 69.1403 151.132 70.3165 156.004 70.7365C163.313 71.3246 170.79 70.9045 178.434 70.9045C178.434 107.364 178.434 143.404 178.434 179.696C155.248 179.696 132.062 179.696 108.707 179.696C108.623 139.372 108.623 99.1315 108.623 58.3872ZM127.105 125.258C127.021 125.258 127.105 125.258 127.105 125.258C127.105 123.41 127.021 121.646 127.105 119.798C127.189 116.941 126.097 115.261 122.989 115.345C119.796 115.429 119.04 117.277 119.04 120.05C119.124 123.41 119.124 126.77 119.04 130.131C118.956 133.071 119.88 135.087 123.241 135.003C126.685 134.919 127.273 132.735 127.189 129.879C127.021 128.283 127.105 126.77 127.105 125.258Z" fill="white"/>
<path d="M100.139 179.78C76.8681 179.78 53.8497 179.78 30.4953 179.78C30.4953 143.656 30.4953 107.616 30.4953 70.9043C34.6117 70.9043 38.7281 70.4843 42.8445 70.9883C54.7738 72.4165 65.1909 68.4681 75.86 63.8476C83.2528 60.6553 91.5697 59.5632 100.139 57.2949C100.139 98.8793 100.139 139.119 100.139 179.78ZM89.8894 124.754C89.8894 122.906 89.8894 121.142 89.8894 119.293C89.8894 116.521 88.5453 115.261 85.773 115.261C83.1687 115.345 81.9086 116.605 81.9086 119.125C81.9086 123.074 81.9086 126.938 81.9086 130.887C81.9086 133.743 83.3368 135.003 86.0251 134.919C88.7974 134.835 90.0574 133.323 89.9734 130.635C89.8054 128.702 89.8894 126.77 89.8894 124.754Z" fill="white"/>
<path d="M0.0839883 118.873C0.0839883 100.812 0.0839883 82.8337 0.0839883 64.7718C0.0839883 58.8912 0.672132 58.2191 6.46874 57.9671C9.99711 57.7991 13.4415 57.7991 16.9698 57.8831C20.4982 57.9671 22.1783 59.6473 22.1783 63.4276C22.0943 100.476 22.0943 137.523 22.1783 174.571C22.1783 178.352 20.4141 179.948 16.8018 179.948C13.1894 179.948 9.49299 180.032 5.88062 179.948C1.00811 179.78 0 178.772 0 173.899C0.0840088 155.501 0.0839883 137.187 0.0839883 118.873Z" fill="white"/>
<path d="M208.762 118.873C208.762 137.355 208.678 155.837 208.846 174.235C208.846 178.184 207.166 179.948 203.385 179.948C199.605 179.948 195.825 179.948 192.044 179.864C188.6 179.78 186.668 178.436 186.836 174.487C187.172 163.902 187.256 153.401 187.256 142.816C187.172 128.618 186.92 114.505 186.752 100.308C186.668 88.0422 186.836 75.777 186.752 63.5117C186.752 59.5633 188.432 57.8831 192.296 57.9671C195.489 58.0511 198.765 57.9671 201.957 57.9671C207.754 57.9671 208.846 59.0592 208.846 64.6878C208.762 82.7497 208.762 100.812 208.762 118.873Z" fill="white"/>
<path d="M106.271 0.00100082C120.301 -0.083008 134.33 5.12553 147.016 14.1985C148.696 15.3746 151.468 16.8028 149.452 19.4911C147.604 21.9273 145.336 20.9192 143.235 19.323C122.065 3.44536 99.2987 2.26924 75.6082 12.6863C71.9958 14.2825 68.8035 17.0548 65.5272 19.407C63.3429 20.9192 60.9907 22.0113 59.4786 19.407C58.8905 18.4829 60.3186 15.4586 61.6628 14.5345C74.3481 5.12553 88.5456 -0.083008 106.271 0.00100082Z" fill="white"/>
<path d="M103.835 12.9383C116.016 12.8543 126.685 15.8787 135.926 23.2714C137.691 24.6996 140.799 26.0437 138.531 28.732C136.598 31.0843 133.994 29.4881 131.894 27.8919C123.661 21.7593 114.42 18.6509 104.171 18.7349C94.51 18.8189 85.7731 21.7593 77.8763 27.2198C76.9522 27.8919 76.112 28.984 75.1879 29.068C73.5918 29.2361 71.8276 28.816 70.1474 28.648C70.7355 27.1358 70.8195 25.0356 71.9116 24.1955C81.1525 16.2987 92.1577 12.7703 103.835 12.9383Z" fill="white"/>
<path d="M104.171 25.7078C112.488 26.2118 119.797 28.228 126.265 32.7645C127.861 33.9406 130.382 35.2007 128.449 37.721C126.601 40.1573 124.417 39.0652 122.149 37.805C118.368 35.7048 114.588 33.4366 110.472 32.3445C101.987 30.1602 94.1739 32.2604 87.1172 37.385C86.3611 37.973 85.437 38.8972 84.6809 38.8131C83.1688 38.7291 81.6566 37.973 80.2284 37.469C80.6485 36.1249 80.7325 34.3607 81.6566 33.6046C88.2933 28.312 96.1901 26.2958 104.171 25.7078Z" fill="white"/>
<path d="M104.255 37.637C108.539 39.4852 112.488 40.9133 116.268 42.8455C117.192 43.3496 117.36 45.2818 117.865 46.5419C116.436 46.8779 114.504 48.0541 113.496 47.55C107.363 43.9376 101.483 43.9376 95.3501 47.55C94.426 48.0541 92.4939 46.8779 91.0657 46.4579C91.4857 45.2818 91.5697 43.4336 92.4098 43.0135C96.1062 41.0813 100.055 39.4852 104.255 37.637Z" fill="white"/>
</g>
<defs>
<clipPath id="clip0_4_95">
<rect width="208.862" height="180" fill="white"/>
</clipPath>
</defs>
</svg>
