<svg width="180" height="124" viewBox="0 0 180 124" fill="none" xmlns="http://www.w3.org/2000/svg">
<path d="M22.5939 45.0546C22.5939 34.3604 31.2943 25.6599 41.9885 25.6599H61.3828V5.51538C61.3828 2.60304 59.0217 0.241943 56.1094 0.241943H5.27344C2.36109 0.241943 0 2.60304 0 5.51538V118.484C0 121.396 2.36109 123.757 5.27344 123.757H56.1094C59.0217 123.757 61.3828 121.396 61.3828 118.484V64.4489H41.9885C31.2943 64.4492 22.5939 55.7487 22.5939 45.0546Z" fill="white"/>
<path d="M33.1407 45.0546C33.1407 49.9332 37.1099 53.9023 41.9885 53.9023C46.8672 53.9023 50.8359 49.9332 50.8359 45.0546C50.8359 40.1759 46.8672 36.2068 41.9885 36.2068C37.1099 36.2068 33.1407 40.1759 33.1407 45.0546Z" fill="white"/>
<path d="M134.548 36.2073L116.852 53.9025H135.827L153.522 36.2073H134.548Z" fill="white"/>
<path d="M100.657 36.2073L82.9614 53.9025H101.937L119.632 36.2073H100.657Z" fill="white"/>
<path d="M59.2383 36.2073C60.6055 38.8623 61.3828 41.8685 61.3828 45.0547C61.3828 48.2409 60.6055 51.2475 59.2383 53.9025H68.0463L85.7415 36.2073H59.2383Z" fill="white"/>
<path d="M177.184 36.2073H168.438L150.743 53.9025H177.184C178.739 53.9025 180 52.6418 180 51.0868V39.0229C180 37.4676 178.739 36.2073 177.184 36.2073Z" fill="white"/>
</svg>
