<svg width="60" height="58" viewBox="0 0 60 58" fill="none" xmlns="http://www.w3.org/2000/svg">
<path fill-rule="evenodd" clip-rule="evenodd" d="M24.9852 16.8916H35.5557C39.9342 16.8916 43.4836 20.3539 43.4836 24.6249V34.936C43.4836 39.2069 39.9342 42.6694 35.5557 42.6694H24.9852C20.6068 42.6694 17.0574 39.2069 17.0574 34.936V24.6249C17.0574 20.3539 20.6068 16.8916 24.9852 16.8916ZM24.9852 19.4694C22.0668 19.4694 19.7 21.7776 19.7 24.6249V34.936C19.7 37.7834 22.0668 40.0916 24.9852 40.0916H35.5557C38.4742 40.0916 40.841 37.7834 40.841 34.936V24.6249C40.841 21.7776 38.4742 19.4694 35.5557 19.4694H24.9852ZM30.2705 36.2249C26.622 36.2249 23.6639 33.3396 23.6639 29.7805C23.6639 26.2212 26.622 23.336 30.2705 23.336C33.919 23.336 36.877 26.2212 36.877 29.7805C36.877 33.3396 33.919 36.2249 30.2705 36.2249ZM30.2705 33.6472C32.4589 33.6472 34.2344 31.916 34.2344 29.7805C34.2344 27.645 32.4589 25.9138 30.2705 25.9138C28.0821 25.9138 26.3066 27.645 26.3066 29.7805C26.3066 31.916 28.0821 33.6472 30.2705 33.6472ZM36.877 24.6249C36.147 24.6249 35.5557 24.0478 35.5557 23.336C35.5557 22.6241 36.147 22.0472 36.877 22.0472C37.6071 22.0472 38.1984 22.6241 38.1984 23.336C38.1984 24.0478 37.6071 24.6249 36.877 24.6249Z" fill="#75757F"/>
<path d="M59.1742 29.0001C59.1742 13.4287 46.2335 0.805664 30.2705 0.805664C14.3074 0.805664 1.36679 13.4287 1.36679 29.0001C1.36679 44.5715 14.3074 57.1946 30.2705 57.1946C46.2335 57.1946 59.1742 44.5715 59.1742 29.0001Z" stroke="#81818B" stroke-opacity="0.9"/>
</svg>
