<svg width="60" height="58" viewBox="0 0 60 58" fill="none" xmlns="http://www.w3.org/2000/svg">
<path d="M43.0467 23.1388C42.7428 21.948 41.846 21.0102 40.7096 20.692C38.6484 20.1138 30.3852 20.1138 30.3852 20.1138C30.3852 20.1138 22.1221 20.1138 20.0608 20.692C18.9245 21.0104 18.0277 21.948 17.7238 23.1388C17.1721 25.297 17.1721 29.7999 17.1721 29.7999C17.1721 29.7999 17.1721 34.3028 17.7238 36.4611C18.0277 37.6518 18.9245 38.5505 20.0608 38.8687C22.1221 39.4471 30.3852 39.4471 30.3852 39.4471C30.3852 39.4471 38.6484 39.4471 40.7096 38.8687C41.846 38.5505 42.7428 37.6518 43.0467 36.4611C43.5983 34.3028 43.5983 29.7999 43.5983 29.7999C43.5983 29.7999 43.5983 25.297 43.0467 23.1388ZM27.6831 33.8883V25.7116L34.5887 29.8001L27.6831 33.8883Z" fill="#75757F"/>
<path d="M59.2889 29.0001C59.2889 13.4287 46.3483 0.805664 30.3853 0.805664C14.4222 0.805664 1.48157 13.4287 1.48157 29.0001C1.48157 44.5715 14.4222 57.1946 30.3853 57.1946C46.3483 57.1946 59.2889 44.5715 59.2889 29.0001Z" stroke="#81818B" stroke-opacity="0.9"/>
</svg>
