<svg width="70" height="50" viewBox="0 0 70 50" fill="none" xmlns="http://www.w3.org/2000/svg">
<path d="M68.537 8.15147C67.732 5.13955 65.3605 2.76789 62.3485 1.96303C56.8891 0.499999 34.9997 0.5 34.9997 0.5C34.9997 0.5 13.1104 0.499999 7.65078 1.96303C4.63955 2.76789 2.26734 5.13955 1.46234 8.15147C0 13.6104 0 25.0001 0 25.0001C0 25.0001 0 36.3899 1.46234 41.8483C2.26734 44.8602 4.63955 47.2324 7.65078 48.0373C13.1104 49.4997 34.9997 49.4997 34.9997 49.4997C34.9997 49.4997 56.8891 49.4997 62.3485 48.0373C65.3605 47.2324 67.732 44.8602 68.537 41.8483C70 36.3899 70 25.0001 70 25.0001C70 25.0001 70 13.6104 68.537 8.15147Z" fill="#ED1F24"/>
<path d="M27.9995 35.5003L46.1855 25.0001L27.9995 14.5V35.5003Z" fill="white"/>
</svg>
