<svg width="109" height="22" viewBox="0 0 109 22" fill="none" xmlns="http://www.w3.org/2000/svg">
<path d="M34.0359 3.41667C33.6361 2.07167 32.4584 1.01267 30.9626 0.653163C28.2514 -2.41897e-06 17.381 0 17.381 0C17.381 0 6.51062 -2.41897e-06 3.79946 0.653163C2.3039 1.01267 1.12598 2.07167 0.72617 3.41667C0 5.85437 0 10.9405 0 10.9405C0 10.9405 0 16.0265 0.72617 18.464C1.12598 19.809 2.3039 20.8682 3.79946 21.2277C6.51062 21.8807 17.381 21.8807 17.381 21.8807C17.381 21.8807 28.2514 21.8807 30.9626 21.2277C32.4584 20.8682 33.6361 19.809 34.0359 18.464C34.7625 16.0265 34.7625 10.9405 34.7625 10.9405C34.7625 10.9405 34.7625 5.85437 34.0359 3.41667Z" fill="#ED1F24"/>
<path d="M13.9045 15.6291L22.9358 10.9404L13.9045 6.25146V15.6291Z" fill="white"/>
<path d="M54.3106 17.7598C54.5009 17.3131 54.5965 16.5828 54.5965 15.5694V11.2997C54.5965 10.3163 54.5009 9.59729 54.3106 9.14264C54.12 8.68838 53.7843 8.46096 53.304 8.46096C52.8399 8.46096 52.5123 8.68838 52.3219 9.14264C52.1314 9.59729 52.036 10.3163 52.036 11.2997V15.5694C52.036 16.5828 52.1269 17.3131 52.3096 17.7598C52.4916 18.2069 52.8229 18.4303 53.304 18.4303C53.7843 18.4303 54.12 18.2069 54.3106 17.7598ZM50.4577 19.9059C49.7694 19.4892 49.2804 18.8406 48.9908 17.961C48.7007 17.0821 48.5559 15.9121 48.5559 14.4516V12.4623C48.5559 10.9869 48.7213 9.80194 49.053 8.90814C49.3843 8.01396 49.902 7.36195 50.6067 6.95209C51.3109 6.54243 52.2349 6.3374 53.3785 6.3374C54.5056 6.3374 55.4086 6.54606 56.0882 6.96339C56.7675 7.38052 57.2648 8.03272 57.5799 8.91905C57.8944 9.80615 58.0519 10.9869 58.0519 12.4623V14.4516C58.0519 15.9121 57.8986 17.0859 57.5921 17.9724C57.2853 18.8593 56.788 19.5073 56.1005 19.917C55.4125 20.3269 54.4807 20.5317 53.304 20.5317C52.0937 20.5317 51.1449 20.323 50.4577 19.9059Z" fill="white"/>
<path d="M103.692 8.71671C103.518 8.91063 103.402 9.22726 103.344 9.6666C103.286 10.1063 103.258 10.7733 103.258 11.6674V12.6512H105.768V11.6674C105.768 10.7882 105.735 10.1212 105.669 9.6666C105.602 9.21233 105.482 8.89225 105.308 8.70561C105.134 8.51934 104.865 8.42612 104.5 8.42612C104.135 8.42612 103.866 8.52317 103.692 8.71671ZM103.258 14.4842V15.1772C103.258 16.0566 103.286 16.7157 103.344 17.1552C103.402 17.5949 103.522 17.9156 103.705 18.1168C103.887 18.3178 104.168 18.4187 104.55 18.4187C105.063 18.4187 105.416 18.2395 105.607 17.8819C105.797 17.5243 105.901 16.9284 105.917 16.0935L108.875 16.2501C108.892 16.3698 108.9 16.5333 108.9 16.7417C108.9 18.0086 108.515 18.9551 107.744 19.5809C106.974 20.2066 105.884 20.5198 104.475 20.5198C102.785 20.5198 101.6 20.043 100.921 19.0889C100.241 18.1355 99.9011 16.6602 99.9011 14.663V12.2708C99.9011 10.2145 100.253 8.71327 100.958 7.76683C101.662 6.82039 102.868 6.34717 104.575 6.34717C105.751 6.34717 106.655 6.5409 107.285 6.92835C107.914 7.3162 108.358 7.91959 108.614 8.73911C108.871 9.55882 109 10.6915 109 12.1368V14.4842H103.258Z" fill="white"/>
<path d="M42.1038 14.2277L38.2009 1.55322H41.6065L42.9737 7.2979C43.322 8.71412 43.5787 9.92109 43.7444 10.9192H43.844C43.9598 10.204 44.2168 9.00471 44.6144 7.3203L46.0314 1.55322H49.4373L45.4847 14.2277V20.3082H42.1038V14.2277Z" fill="white"/>
<path d="M69.1286 6.60547V20.3082H66.4438L66.1453 18.632H66.0708C65.3415 19.8987 64.2476 20.5318 62.7893 20.5318C61.7785 20.5318 61.0328 20.2339 60.5521 19.6378C60.0714 19.0418 59.8312 18.1101 59.8312 16.8436V6.60547H63.2617V16.6646C63.2617 17.2759 63.3365 17.7118 63.4855 17.9721C63.6347 18.2332 63.8834 18.3636 64.2312 18.3636C64.5297 18.3636 64.8156 18.2817 65.0888 18.1176C65.3623 17.9536 65.5652 17.7453 65.6981 17.4918V6.60547H69.1286Z" fill="white"/>
<path d="M86.7255 6.60547V20.3082H84.0407L83.7423 18.632H83.6682C82.9382 19.8987 81.8445 20.5318 80.3862 20.5318C79.3752 20.5318 78.6297 20.2339 78.149 19.6378C77.6681 19.0418 77.4281 18.1101 77.4281 16.8436V6.60547H80.8586V16.6646C80.8586 17.2759 80.9332 17.7118 81.0822 17.9721C81.2316 18.2332 81.4803 18.3636 81.8282 18.3636C82.1266 18.3636 82.4125 18.2817 82.6857 18.1176C82.9592 17.9536 83.1621 17.7453 83.295 17.4918V6.60547H86.7255Z" fill="white"/>
<path d="M78.4508 4.03456H75.045V20.308H71.689V4.03456H68.2834V1.55322H78.4508V4.03456Z" fill="white"/>
<path d="M94.935 14.3852C94.935 15.3839 94.889 16.1663 94.7981 16.7324C94.707 17.299 94.5537 17.7014 94.3382 17.9395C94.1228 18.178 93.8322 18.2971 93.4684 18.2971C93.1861 18.2971 92.9251 18.2376 92.6851 18.1183C92.4444 17.9991 92.2502 17.8203 92.1007 17.5817V9.80271C92.2168 9.43038 92.4156 9.12466 92.6975 8.88613C92.9793 8.64818 93.2855 8.52854 93.6172 8.52854C93.9652 8.52854 94.2343 8.65163 94.4251 8.89724C94.6154 9.14323 94.7483 9.55672 94.823 10.1383C94.8975 10.7193 94.935 11.5463 94.935 12.6192V14.3852ZM98.0796 8.79597C97.872 7.93185 97.5365 7.30586 97.0726 6.91802C96.6085 6.53076 95.9702 6.33703 95.1585 6.33703C94.5288 6.33703 93.9403 6.49745 93.3936 6.81771C92.8467 7.13817 92.4239 7.55913 92.1257 8.08059H92.1005L92.1007 0.860352H88.7946V20.3079H91.6283L91.9766 19.0115H92.0509C92.316 19.4735 92.7137 19.8385 93.2442 20.1069C93.7745 20.3751 94.3631 20.5093 95.0095 20.5093C96.1693 20.5093 97.0228 20.0284 97.5699 19.0674C98.1168 18.1063 98.3902 16.6051 98.3902 14.563V12.3951C98.3902 10.8602 98.2865 9.66048 98.0796 8.79597Z" fill="white"/>
</svg>
