<svg width="180" height="184" viewBox="0 0 180 184" fill="none" xmlns="http://www.w3.org/2000/svg">
<path d="M19.3029 183.378C13.9946 183.378 9.44879 181.49 5.66541 177.713C1.88847 173.929 0 169.383 0 164.075V125.469C0 120.161 1.88847 115.615 5.66541 111.832C9.44879 108.055 13.9946 106.166 19.3029 106.166H115.818V67.5603H135.121V106.166H154.424C159.732 106.166 164.278 108.055 168.061 111.832C171.838 115.615 173.727 120.161 173.727 125.469V164.075C173.727 169.383 171.838 173.929 168.061 177.713C164.278 181.49 159.732 183.378 154.424 183.378H19.3029ZM154.424 164.075V125.469H19.3029V164.075H154.424ZM48.2574 144.772C48.2574 142.038 47.334 139.747 45.4874 137.9C43.6343 136.047 41.3405 135.121 38.6059 135.121C35.8713 135.121 33.5775 136.047 31.7244 137.9C29.8778 139.747 28.9544 142.038 28.9544 144.772C28.9544 147.507 29.8778 149.797 31.7244 151.644C33.5775 153.497 35.8713 154.424 38.6059 154.424C41.3405 154.424 43.6343 153.497 45.4874 151.644C47.334 149.797 48.2574 147.507 48.2574 144.772ZM82.0375 144.772C82.0375 142.038 81.1142 139.747 79.2676 137.9C77.4145 136.047 75.1206 135.121 72.3861 135.121C69.6515 135.121 67.3609 136.047 65.5142 137.9C63.6611 139.747 62.7346 142.038 62.7346 144.772C62.7346 147.507 63.6611 149.797 65.5142 151.644C67.3609 153.497 69.6515 154.424 72.3861 154.424C75.1206 154.424 77.4145 153.497 79.2676 151.644C81.1142 149.797 82.0375 147.507 82.0375 144.772ZM106.166 154.424C108.901 154.424 111.195 153.497 113.048 151.644C114.894 149.797 115.818 147.507 115.818 144.772C115.818 142.038 114.894 139.747 113.048 137.9C111.195 136.047 108.901 135.121 106.166 135.121C103.432 135.121 101.141 136.047 99.2944 137.9C97.4413 139.747 96.5147 142.038 96.5147 144.772C96.5147 147.507 97.4413 149.797 99.2944 151.644C101.141 153.497 103.432 154.424 106.166 154.424ZM108.579 60.3217L94.5845 46.3271C98.7668 42.4665 103.432 39.4102 108.579 37.1582C113.727 34.9062 119.357 33.7802 125.469 33.7802C131.582 33.7802 137.212 34.9062 142.359 37.1582C147.507 39.4102 152.172 42.4665 156.354 46.3271L142.359 60.3217C140.107 58.0697 137.575 56.3003 134.764 55.0134C131.945 53.7265 128.847 53.0831 125.469 53.0831C122.091 53.0831 118.996 53.7265 116.184 55.0134C113.366 56.3003 110.831 58.0697 108.579 60.3217ZM84.4504 36.193L70.9383 22.681C78.0161 15.6032 86.2198 10.0536 95.5496 6.03217C104.879 2.01072 114.853 0 125.469 0C136.086 0 146.059 2.01072 155.389 6.03217C164.719 10.0536 172.922 15.6032 180 22.681L166.488 36.193C161.18 30.8847 155.025 26.7442 148.025 23.7716C141.031 20.7925 133.512 19.3029 125.469 19.3029C117.426 19.3029 109.908 20.7925 102.914 23.7716C95.9131 26.7442 89.7587 30.8847 84.4504 36.193Z" fill="white"/>
</svg>
