<svg width="180" height="180" viewBox="0 0 180 180" fill="none" xmlns="http://www.w3.org/2000/svg">
<path d="M10.0375 74.8047C12.3362 75.9423 14.9241 75.6985 16.9674 74.154L86.5373 19.5005C88.5701 17.9035 91.4309 17.9039 93.4629 19.5008L163.593 74.6081C165.525 76.0675 167.973 76.2979 170.147 75.2226C172.33 74.142 173.634 72.042 173.634 69.6055C173.634 67.6589 172.709 65.7939 171.159 64.6162C171.089 64.5627 171.02 64.5075 170.952 64.4509L96.6269 2.20553C92.694 -0.71788 87.2461 -0.736522 83.2931 2.16016L9.21233 63.4009C9.14374 63.4575 9.07374 63.5128 9.00269 63.5662C7.34207 64.8107 6.35083 66.7921 6.35083 68.8675C6.35083 71.443 7.72899 73.6626 10.0375 74.8047Z" fill="white"/>
<path d="M76.8773 129.55H103.662C103.659 122.51 103.658 109.799 103.662 102.765H76.8773V129.55Z" fill="white"/>
<path d="M174.162 168.79H158.302V84.546C157.777 84.2255 157.263 83.879 156.765 83.4992C156.744 83.483 156.723 83.4668 156.703 83.4506L89.9996 31.0364L23.8572 82.9968C23.8365 83.013 23.8157 83.0292 23.7949 83.045C23.121 83.5593 22.4203 84.0201 21.6982 84.4274V168.79H5.83765C2.74188 168.79 0.232483 171.299 0.232483 174.395C0.232483 177.49 2.74188 180 5.83765 180H174.162C177.258 180 179.767 177.49 179.767 174.395C179.767 171.299 177.258 168.79 174.162 168.79ZM121.809 119.171C124.723 119.171 127.086 121.533 127.086 124.447C127.086 127.361 124.723 129.723 121.809 129.723H114.215V134.826C114.215 137.74 111.853 140.103 108.939 140.103H103.322V147.735C103.322 150.649 100.96 153.011 98.0459 153.011C95.132 153.011 92.7697 150.649 92.7697 147.735V140.103H86.7438V147.735C86.7438 150.649 84.3814 153.011 81.4675 153.011C78.5536 153.011 76.1912 150.649 76.1912 147.735V140.103H71.6009C68.687 140.103 66.3246 137.74 66.3246 134.826V129.723H58.6546C55.7407 129.723 53.3784 127.361 53.3784 124.447C53.3784 121.533 55.7407 119.171 58.6546 119.171H66.3249V113.144H58.6546C55.7407 113.144 53.3784 110.782 53.3784 107.868C53.3784 104.954 55.7407 102.592 58.6546 102.592H66.3249V97.4887C66.3249 94.5748 68.6873 92.2124 71.6012 92.2124H76.1916V84.5804C76.1916 81.6665 78.554 79.3042 81.4679 79.3042C84.3818 79.3042 86.7442 81.6665 86.7442 84.5804V92.2124H92.77V84.5804C92.77 81.6665 95.1324 79.3042 98.0463 79.3042C100.96 79.3042 103.323 81.6665 103.323 84.5804V92.2124H108.939C111.853 92.2124 114.215 94.5748 114.215 97.4887V102.592H121.81C124.724 102.592 127.086 104.954 127.086 107.868C127.086 110.782 124.724 113.144 121.81 113.144H114.215V119.171H121.809Z" fill="white"/>
</svg>
