<svg width="250" height="82" viewBox="0 0 250 82" fill="none" xmlns="http://www.w3.org/2000/svg">
<path d="M69.2424 9.71863C68.5994 15.4997 68.1189 20.9982 67.3458 26.4534C66.5383 32.1445 65.6568 37.8392 64.4285 43.4511C62.6131 51.7438 59.526 59.5522 54.3093 66.3884C49.2858 72.9689 42.8064 77.6463 35.2016 80.8313C34.8638 80.9735 34.358 80.9555 34.0166 80.8115C22.1687 75.8189 13.7674 67.3894 8.75652 55.5895C5.61526 48.1952 3.85948 40.4318 2.7558 32.5226C1.85442 26.0538 1.18426 19.5543 0.420173 13.0656C0.290115 11.9655 0.24315 10.8547 0.0878034 9.75824C-0.00432091 9.10469 0.43643 9.09568 0.830216 8.98946C3.93174 8.15227 7.03687 7.32228 10.1384 6.48329C17.8226 4.40741 25.5087 2.33154 33.1893 0.24306C34.0979 -0.00359654 34.9451 -0.0900162 35.9061 0.172844C46.6268 3.10392 57.362 5.98097 68.0882 8.88504C68.6427 9.03627 69.508 8.98046 69.2424 9.71863ZM37.8786 32.0239C33.2887 27.4527 28.1279 26.4823 22.2392 29.1613C22.2392 27.8992 22.2067 26.7325 22.2464 25.5694C22.3096 23.7384 21.7569 22.1451 20.5123 20.7984C19.2298 19.412 17.6655 18.4866 15.8122 17.8331C15.7869 18.2292 15.758 18.4632 15.758 18.6991C15.7562 25.8989 15.7453 33.0988 15.7706 40.2986C15.7742 41.188 15.9043 42.0954 16.1084 42.965C17.8317 50.2693 25.3895 54.3706 32.4885 51.9023C34.5856 51.1731 36.2999 49.902 37.8552 48.2582C41.5943 52.7575 46.625 52.9321 51.8797 52.5324C51.8797 50.6042 51.8797 48.6705 51.8797 46.6397C51.224 46.6397 50.6297 46.6505 50.0354 46.6379C48.6536 46.6091 47.232 46.7621 45.8989 46.4938C42.81 45.8727 40.8194 43.2621 40.823 40.1528C40.8248 37.0309 42.7955 34.4905 45.9097 33.8207C49.2659 33.1006 50.6785 30.6088 51.8743 27.7713C46.5961 27.3717 41.6106 27.6057 37.8786 32.0239Z" fill="#fff"/>
<path d="M79.6207 47.0501C79.6207 37.8951 79.6207 28.7382 79.6207 19.5327C86.082 19.5327 92.4783 19.5327 99.0715 19.5327C99.0715 20.4347 99.1546 21.3277 99.0535 22.1973C98.8855 23.6376 98.0275 24.2857 96.3981 24.2911C92.8468 24.3037 89.2955 24.2947 85.7442 24.2965C85.4191 24.2965 85.0939 24.2965 84.7001 24.2965C84.7001 26.2536 84.7001 28.1242 84.7001 30.1551C85.0759 30.1551 85.4534 30.1425 85.8273 30.1569C88.3165 30.2595 90.8327 30.1803 93.2894 30.5224C96.5354 30.9761 99.0192 32.6847 99.7471 36.0712C100.506 39.6054 100.235 42.9776 97.0936 45.455C95.6774 46.5712 93.9812 47.0754 92.2182 47.106C88.1268 47.178 84.0336 47.1276 79.9404 47.1222C79.8537 47.1222 79.7688 47.0844 79.6207 47.0501ZM84.6821 42.5257C87.22 42.4087 89.711 42.4123 92.1712 42.1386C93.9704 41.9388 94.8916 40.6713 94.9512 38.9141C95.0163 36.9822 94.1673 35.5221 92.3356 35.2701C89.832 34.9262 87.2778 34.9478 84.6821 34.8091C84.6821 37.4756 84.6821 39.8881 84.6821 42.5257Z" fill="#fff"/>
<path d="M198.972 19.5381C198.972 20.4671 199.052 21.3385 198.954 22.1901C198.801 23.5368 197.771 24.2839 196.156 24.2911C192.726 24.3055 189.294 24.2965 185.863 24.2965C185.177 24.2965 184.491 24.2965 183.741 24.2965C183.741 26.43 183.741 28.4789 183.741 30.6412C184.088 30.6412 184.407 30.6412 184.729 30.6412C188.19 30.6412 191.651 30.6304 195.112 30.6484C196.637 30.6556 197.661 31.509 197.776 32.7909C197.914 34.3032 196.828 35.4357 195.17 35.4429C191.709 35.4591 188.248 35.4483 184.787 35.4483C184.46 35.4483 184.135 35.4483 183.741 35.4483C183.741 37.7474 183.741 39.9799 183.741 42.3259C188.799 42.3259 193.864 42.3259 199.012 42.3259C199.012 43.4151 199.097 44.4017 198.988 45.3668C198.878 46.3426 197.847 47.1204 196.763 47.1258C192.128 47.1438 187.493 47.1798 182.859 47.1132C180.518 47.0789 178.669 45.0535 178.652 42.6607C178.627 38.9123 178.652 35.162 178.643 31.4118C178.634 27.7227 178.615 24.0337 178.584 20.3464C178.578 19.7919 178.645 19.4714 179.35 19.4732C185.73 19.4984 192.11 19.4894 198.49 19.4912C198.609 19.4894 198.728 19.5129 198.972 19.5381Z" fill="#fff"/>
<path d="M108.806 24.2947C108.806 26.43 108.806 28.4573 108.806 30.5872C109.129 30.6052 109.447 30.6358 109.763 30.6376C113.226 30.6412 116.687 30.6286 120.15 30.6466C121.685 30.6556 122.713 31.518 122.798 32.7927C122.901 34.3573 121.868 35.4339 120.199 35.4411C116.767 35.4573 113.335 35.4465 109.902 35.4465C109.574 35.4465 109.243 35.4465 108.833 35.4465C108.833 37.7258 108.833 39.9565 108.833 42.3169C113.873 42.3169 118.936 42.3169 124.053 42.3169C124.053 43.4223 124.146 44.4108 124.028 45.3722C123.909 46.3444 122.859 47.1186 121.788 47.1222C117.213 47.1384 112.635 47.1672 108.06 47.1132C105.681 47.0844 103.777 45.1561 103.757 42.6355C103.696 35.045 103.737 27.4527 103.741 19.8603C103.741 19.7757 103.779 19.6911 103.815 19.5453C110.511 19.5453 117.211 19.5453 124.122 19.5453C124.041 20.5931 124.072 21.6697 123.844 22.6906C123.609 23.7528 122.616 24.2803 121.207 24.2875C117.986 24.3019 114.763 24.2929 111.543 24.2929C110.648 24.2947 109.754 24.2947 108.806 24.2947Z" fill="#fff"/>
<path d="M150.676 47.142C150.676 46.6973 150.676 46.3732 150.676 46.0509C150.676 39.0023 150.674 31.9537 150.677 24.9051C150.677 24.4568 150.67 23.9995 150.742 23.5602C151.18 20.9316 152.601 19.6551 155.437 19.5255C157.63 19.4265 159.828 19.4895 162.025 19.4859C164.492 19.4823 166.96 19.4715 169.427 19.4895C172.692 19.5129 174.46 21.1765 174.476 24.3974C174.518 31.7755 174.491 39.1536 174.487 46.5317C174.487 46.7027 174.451 46.8755 174.426 47.1204C173.427 47.1204 172.464 47.1906 171.517 47.1024C170.285 46.989 169.462 45.9159 169.46 44.562C169.456 38.2029 169.458 31.8457 169.458 25.4866C169.458 25.1302 169.458 24.7737 169.458 24.2011C168.246 24.2011 167.088 24.2011 165.93 24.2011C162.861 24.2011 159.79 24.2299 156.721 24.1813C155.892 24.1687 155.73 24.455 155.733 25.213C155.76 31.5414 155.77 37.8699 155.721 44.1983C155.715 44.9239 155.453 45.7395 155.052 46.3408C154.772 46.7603 154.07 47.0322 153.521 47.1096C152.641 47.232 151.729 47.142 150.676 47.142Z" fill="#fff"/>
<path d="M210.099 34.6417C209.274 35.5743 208.521 36.3827 207.825 37.2397C207.643 37.4648 207.579 37.8411 207.576 38.1471C207.554 40.2158 207.572 42.2863 207.563 44.3549C207.554 46.1427 206.555 47.1258 204.765 47.1312C204.052 47.133 203.338 47.1312 202.578 47.1312C202.578 37.8969 202.578 28.7634 202.578 19.5669C203.622 19.5669 204.677 19.4499 205.692 19.5975C206.886 19.7703 207.551 20.7228 207.56 22.0028C207.578 24.4316 207.565 26.8604 207.567 29.2909C207.567 29.615 207.567 29.9373 207.567 30.5458C208.15 29.9787 208.569 29.5862 208.97 29.1775C211.846 26.2392 214.709 23.2883 217.596 20.3591C218.638 19.3022 219.973 19.1906 221.004 20.0062C222.229 20.973 222.301 22.5232 221.109 23.7907C218.951 26.0862 216.779 28.3709 214.563 30.6106C214.021 31.1579 214.001 31.482 214.478 32.0815C217.207 35.5059 219.892 38.9681 222.59 42.4159C222.775 42.6518 222.97 42.8822 223.141 43.1289C224.034 44.3964 223.884 45.7809 222.762 46.6505C221.673 47.4967 220.067 47.3004 219.142 46.1482C217.509 44.1119 215.912 42.045 214.299 39.9925C212.973 38.2984 211.644 36.6078 210.099 34.6417Z" fill="#fff"/>
<path d="M135.721 35.0594C135.721 33.5002 135.721 32.0419 135.721 30.5656C136.743 30.4738 137.737 30.4648 138.698 30.2811C140.336 29.9678 141.068 29.046 141.071 27.4887C141.075 25.8701 140.246 24.6836 138.669 24.4928C137.314 24.329 135.907 24.3524 134.55 24.5198C133.183 24.689 132.5 25.7639 132.388 27.4311C132.249 29.5123 131.017 30.4125 129.001 29.903C127.827 29.606 127.26 28.8876 127.215 27.6345C127.09 24.2047 128.94 21.4357 132.198 20.2906C135.217 19.2302 138.282 19.1204 141.308 20.215C145.005 21.5527 146.284 24.6134 146.187 28C146.136 29.7374 145.415 31.1687 144.118 32.3894C145.423 33.4678 146.53 34.6075 146.761 36.2333C147.502 41.4094 145.495 45.8655 139.496 46.9295C137.007 47.3706 134.514 47.2752 132.112 46.4074C128.62 45.1453 126.781 42.4753 126.786 38.7808C126.788 37.0849 127.668 36.0712 129.265 35.9236C130.611 35.7994 131.938 36.813 131.942 38.3722C131.949 41.3716 134.27 42.4087 136.66 42.3529C137.2 42.3403 137.746 42.3151 138.273 42.2142C140.773 41.7407 142.186 39.5226 141.588 37.0507C141.317 35.929 140.504 35.1584 139.303 35.0774C138.143 35 136.971 35.0594 135.721 35.0594Z" fill="#fff"/>
<path d="M249.94 44.616C249.839 45.8835 249.059 46.8539 247.877 47.0988C246.656 47.3508 245.498 46.7333 244.98 45.4892C244.346 43.9678 243.752 42.4303 243.152 40.8963C242.316 38.7593 242.319 38.7575 240.014 38.7575C237.997 38.7575 235.981 38.7737 233.963 38.7467C233.427 38.7394 233.165 38.9195 232.98 39.429C232.276 41.3716 231.528 43.2981 230.788 45.2263C230.396 46.2472 229.713 46.9745 228.587 47.1258C226.617 47.3886 225.264 45.59 225.995 43.6294C227.065 40.7667 228.192 37.9239 229.301 35.0756C230.984 30.7456 232.67 26.4174 234.362 22.091C235.105 20.1934 236.219 19.2914 237.834 19.3328C239.655 19.3796 240.603 20.5013 241.221 22.082C243.974 29.1144 246.758 36.1343 249.519 43.1631C249.704 43.6312 249.803 44.1317 249.94 44.616ZM240.538 33.9143C239.617 31.6026 238.75 29.4259 237.798 27.0386C236.824 29.4583 235.939 31.6584 234.998 33.9936C236.711 33.9936 238.239 33.9954 239.767 33.99C239.971 33.9918 240.172 33.9522 240.538 33.9143Z" fill="#fff"/>
<path d="M82.4422 63.3763C84.7345 63.3763 86.9184 63.3763 89.2468 63.3763C89.2468 63.0612 89.2468 62.7443 89.2468 62.4275C89.2468 59.0697 89.2504 55.7137 89.2431 52.356C89.2413 51.6826 89.3858 51.0957 90.0632 50.7968C91.1109 50.3341 92.0647 51.0363 92.0719 52.3092C92.09 55.0062 92.0755 57.705 92.0791 60.402C92.0809 61.3004 92.1261 62.2006 92.1044 63.099C92.09 63.7022 92.3248 64.01 92.8992 64.2225C93.2804 64.3647 93.8168 64.7104 93.8584 65.0219C93.9957 66.0427 94.0119 67.0959 93.9108 68.1222C93.8819 68.4192 93.3219 68.8495 92.9769 68.8766C92.6391 68.9036 92.258 68.5093 91.9129 68.2734C91.8298 68.2158 91.8064 68.0646 91.7648 67.9511C90.9718 65.7978 91.1958 66.2281 89.1492 66.1885C86.6564 66.1417 84.16 66.1723 81.6709 66.0571C80.3595 65.9959 79.5972 65.2055 79.5809 63.9038C79.5267 59.6782 79.5538 55.4509 79.5647 51.2253C79.5647 51.0507 79.6712 50.7878 79.8067 50.714C80.9303 50.1163 82.3483 50.9913 82.3591 52.2731C82.388 55.6291 82.4133 58.9851 82.4386 62.3393C82.444 62.6633 82.4422 62.9874 82.4422 63.3763Z" fill="#fff"/>
<path d="M117.65 56.4735C117.65 54.8063 117.679 53.1608 117.635 51.5188C117.617 50.8526 117.809 50.5898 118.497 50.6474C119.117 50.6996 119.745 50.6582 120.417 50.6582C120.417 55.8578 120.417 60.9475 120.417 66.1777C119.642 66.1777 118.869 66.2191 118.105 66.1453C117.934 66.1291 117.675 65.7096 117.67 65.472C117.632 63.7616 117.65 62.0512 117.65 60.3408C117.65 60.0113 117.65 59.6836 117.65 59.2785C115.367 59.2785 113.127 59.2785 110.777 59.2785C110.777 61.5165 110.777 63.7814 110.777 66.1147C109.783 66.1147 108.898 66.1147 107.943 66.1147C107.943 60.9961 107.943 55.8884 107.943 50.7194C108.844 50.7194 109.729 50.7194 110.699 50.7194C110.699 52.635 110.699 54.5129 110.699 56.4735C113.018 56.4735 115.255 56.4735 117.65 56.4735Z" fill="#fff"/>
<path d="M97.3464 63.4339C100.146 63.4339 102.905 63.4339 105.632 63.4339C106.104 65.1065 105.65 66.2029 103.777 66.1129C101.496 66.0049 99.207 66.1021 96.9201 66.0787C95.5076 66.0643 94.4852 65.1083 94.4761 63.7291C94.4509 59.5018 94.4689 55.2762 94.4743 51.0489C94.4743 50.9624 94.5087 50.8742 94.5412 50.723C98.2153 50.723 101.898 50.723 105.571 50.723C106.031 52.644 105.489 53.3642 103.602 53.3696C101.532 53.375 99.4635 53.3714 97.323 53.3714C97.323 54.5777 97.323 55.6957 97.323 56.9146C99.2413 56.9146 101.127 56.9146 103.015 56.9146C104.384 56.9146 105.065 57.3575 105.063 58.2415C105.061 59.1525 104.4 59.59 103.024 59.5936C101.219 59.5972 99.4147 59.6026 97.6102 59.608C97.5524 59.608 97.4946 59.635 97.3446 59.6728C97.3464 60.8539 97.3464 62.0584 97.3464 63.4339Z" fill="#fff"/>
<path d="M135.444 50.7518C135.737 50.714 135.939 50.6618 136.142 50.6654C138.423 50.6924 140.715 50.5952 142.982 50.795C145.556 51.0219 147.043 53.0743 146.884 55.811C146.743 58.2523 144.911 60.0185 142.413 60.0797C141.095 60.1122 139.776 60.0851 138.298 60.0851C138.298 60.6631 138.298 61.187 138.298 61.7091C138.298 62.6669 138.318 63.6266 138.291 64.5844C138.266 65.535 137.63 66.1957 136.817 66.1759C136.006 66.1543 135.471 65.571 135.455 64.606C135.43 63.1692 135.446 61.7307 135.446 60.2922C135.446 57.4475 135.446 54.6011 135.446 51.7564C135.444 51.4324 135.444 51.1083 135.444 50.7518ZM138.369 57.3395C139.778 57.3395 141.154 57.4331 142.511 57.3089C143.539 57.2153 144.032 56.4537 144.034 55.4149C144.037 54.3742 143.508 53.537 142.567 53.4668C141.18 53.3624 139.776 53.4398 138.298 53.4398C138.298 54.5813 138.295 55.6525 138.302 56.7238C138.304 56.9236 138.345 57.1253 138.369 57.3395Z" fill="#fff"/>
<path d="M126.51 53.3732C125.499 53.3732 124.574 53.3822 123.649 53.3714C122.177 53.3534 121.573 52.6116 121.9 51.1659C121.945 50.9661 122.271 50.6852 122.469 50.6834C125.867 50.6564 129.267 50.6474 132.664 50.6816C133.432 50.6888 133.992 51.1155 134.01 51.9599C134.028 52.7935 133.512 53.2616 132.737 53.312C131.665 53.3822 130.585 53.33 129.415 53.33C129.391 53.8071 129.361 54.1528 129.361 54.4985C129.357 57.7356 129.361 60.9727 129.357 64.2117C129.355 65.742 128.889 66.1579 127.379 66.2083C126.608 66.2336 126.494 65.9185 126.497 65.2595C126.521 61.7217 126.508 58.1857 126.508 54.6479C126.51 54.2608 126.51 53.8755 126.51 53.3732Z" fill="#fff"/>
<path d="M28.3327 46.6379C24.599 46.6433 21.7666 43.822 21.7775 40.106C21.7883 36.5141 24.6351 33.6821 28.2551 33.6605C31.884 33.6389 34.8284 36.5303 34.8374 40.1222C34.8465 43.7518 31.9707 46.6325 28.3327 46.6379Z" fill="#fff"/>
</svg>
