<svg width="54" height="55" viewBox="0 0 54 55" fill="none" xmlns="http://www.w3.org/2000/svg">
<path d="M28.7454 9.10938H25.1454V29.5179L38.1518 35.8141L39.6973 32.5024L28.7454 27.2008V9.10938Z" fill="#1AC2C2"/>
<path d="M27 0C12.0883 0 0 12.3122 0 27.5C0 42.6878 12.0883 55 27 55C41.9116 55 54 42.6878 54 27.5C54 12.3122 41.9116 0 27 0ZM27 51.3333C14.0766 51.3333 3.6 40.6628 3.6 27.5C3.6 14.3372 14.0766 3.66667 27 3.66667C39.9234 3.66667 50.4 14.3372 50.4 27.5C50.4 40.6628 39.9234 51.3333 27 51.3333Z" fill="#1AC2C2"/>
</svg>
