<svg width="64" height="64" viewBox="0 0 64 64" fill="none" xmlns="http://www.w3.org/2000/svg">
<path d="M45.3329 5.33286C48.8661 5.34341 52.2516 6.75166 54.75 9.25004C57.2483 11.7484 58.6566 15.1339 58.6671 18.6671V45.3329C58.6566 48.8661 57.2483 52.2516 54.75 54.75C52.2516 57.2483 48.8661 58.6566 45.3329 58.6671H18.6671C15.1339 58.6566 11.7484 57.2483 9.25004 54.75C6.75166 52.2516 5.34341 48.8661 5.33286 45.3329V18.6671C5.34341 15.1339 6.75166 11.7484 9.25004 9.25004C11.7484 6.75166 15.1339 5.34341 18.6671 5.33286H45.3329ZM45.3329 0H18.6671C8.4 0 0 8.4 0 18.6671V45.3329C0 55.6 8.4 64 18.6671 64H45.3329C55.6 64 64 55.6 64 45.3329V18.6671C64 8.4 55.6 0 45.3329 0Z" fill="#1AC2C2"/>
<path d="M49.3329 18.667C48.5418 18.667 47.7684 18.4324 47.1106 17.9929C46.4528 17.5533 45.9401 16.9286 45.6374 16.1977C45.3346 15.4668 45.2554 14.6626 45.4097 13.8866C45.5641 13.1107 45.9451 12.398 46.5045 11.8386C47.0639 11.2792 47.7766 10.8982 48.5525 10.7439C49.3284 10.5895 50.1327 10.6687 50.8636 10.9715C51.5945 11.2742 52.2192 11.7869 52.6588 12.4447C53.0983 13.1025 53.3329 13.8759 53.3329 14.667C53.334 15.1926 53.2313 15.7133 53.0307 16.1991C52.8301 16.6849 52.5355 17.1263 52.1638 17.4979C51.7922 17.8696 51.3508 18.1642 50.865 18.3648C50.3791 18.5654 49.8585 18.6681 49.3329 18.667Z" fill="#1AC2C2"/>
<path d="M32 21.3329C34.1098 21.3329 36.1722 21.9585 37.9264 23.1306C39.6806 24.3027 41.0478 25.9687 41.8552 27.9179C42.6625 29.867 42.8738 32.0118 42.4622 34.0811C42.0506 36.1503 41.0346 38.051 39.5428 39.5428C38.051 41.0346 36.1503 42.0506 34.0811 42.4622C32.0118 42.8738 29.867 42.6625 27.9179 41.8552C25.9687 41.0478 24.3027 39.6806 23.1306 37.9263C21.9585 36.1721 21.3329 34.1098 21.3329 32C21.3359 29.1718 22.4607 26.4604 24.4605 24.4605C26.4604 22.4607 29.1718 21.3359 32 21.3329ZM32 16C28.8355 16 25.7421 16.9384 23.1109 18.6965C20.4797 20.4546 18.4289 22.9534 17.2179 25.8771C16.0069 28.8007 15.6901 32.0178 16.3074 35.1214C16.9248 38.2251 18.4487 41.0761 20.6863 43.3137C22.9239 45.5513 25.7749 47.0752 28.8786 47.6926C31.9823 48.3099 35.1993 47.9931 38.1229 46.7821C41.0466 45.5711 43.5454 43.5203 45.3035 40.8891C47.0616 38.2579 48 35.1645 48 32C48 27.7565 46.3143 23.6869 43.3137 20.6863C40.3131 17.6857 36.2435 16 32 16Z" fill="#1AC2C2"/>
</svg>
