<svg width="46" height="54" viewBox="0 0 46 54" fill="none" xmlns="http://www.w3.org/2000/svg">
<path d="M22.9759 12.6953C21.3562 12.6953 19.7729 13.1285 18.4261 13.9401C17.0794 14.7517 16.0298 15.9053 15.4099 17.2549C14.7901 18.6046 14.6279 20.0897 14.9439 21.5225C15.2599 22.9552 16.0399 24.2713 17.1852 25.3043C18.3304 26.3373 19.7896 27.0407 21.3782 27.3257C22.9668 27.6107 24.6134 27.4645 26.1098 26.9054C27.6062 26.3464 28.8852 25.3997 29.785 24.185C30.6849 22.9704 31.1651 21.5423 31.1651 20.0815C31.1627 18.1232 30.2991 16.2458 28.7638 14.8611C27.2286 13.4764 25.147 12.6975 22.9759 12.6953ZM22.9759 23.7746C22.166 23.7746 21.3744 23.558 20.701 23.1522C20.0276 22.7464 19.5028 22.1696 19.1929 21.4948C18.883 20.82 18.8019 20.0774 18.9599 19.361C19.1179 18.6446 19.5079 17.9866 20.0805 17.4701C20.6531 16.9536 21.3827 16.6019 22.177 16.4594C22.9713 16.3169 23.7946 16.39 24.5428 16.6695C25.291 16.949 25.9305 17.4224 26.3804 18.0297C26.8304 18.637 27.0705 19.3511 27.0705 20.0815C27.0692 21.0606 26.6374 21.9993 25.8698 22.6916C25.1022 23.384 24.0614 23.7734 22.9759 23.7746Z" fill="#1AC2C2"/>
<path d="M38.7123 5.87722C34.8215 2.36884 29.6277 0.284712 24.1333 0.0270883C18.6389 -0.230535 13.2335 1.3566 8.9603 4.48219C4.68707 7.60777 1.84898 12.0502 0.993771 16.9521C0.138565 21.8541 1.32687 26.8679 4.32935 31.0261L19.8003 52.4475C20.1446 52.9242 20.6154 53.3158 21.1699 53.5869C21.7244 53.858 22.3452 54 22.9759 54C23.6067 54 24.2274 53.858 24.782 53.5869C25.3365 53.3158 25.8072 52.9242 26.1515 52.4475L41.623 31.0261C44.409 27.1688 45.6402 22.565 45.1102 17.9863C44.5803 13.4077 42.3215 9.13243 38.7123 5.87722ZM38.1922 29.0103L22.976 50.0782L7.75964 29.0103C3.10198 22.5613 4.10094 13.931 10.1349 8.48858C11.8212 6.96762 13.8232 5.76112 16.0264 4.93797C18.2297 4.11483 20.5912 3.69116 22.976 3.69116C25.3608 3.69116 27.7223 4.11483 29.9255 4.93797C32.1288 5.76112 34.1308 6.96762 35.817 8.48858C41.851 13.931 42.8499 22.5613 38.1922 29.0103Z" fill="#1AC2C2"/>
</svg>
