<svg width="357" height="106" viewBox="0 0 357 106" fill="none" xmlns="http://www.w3.org/2000/svg">
<g clip-path="url(#clip0_199_28)">
<path d="M357 0H0V106H357V0Z" fill="#004A93"/>
<path d="M60 10H78.9L115.45 66.9359V10H133.1V94.6915H114L78.1 37.6574V94.6915H60V10Z" fill="white"/>
<path d="M143.75 10.0493H161V23.8043H143.75V10.4423" fill="white"/>
<path d="M160.95 33.0889H143.75V94.6916H160.95V33.0889Z" fill="white"/>
<path d="M211.9 55.0476H228.75C228.558 52.4631 228.002 49.9172 227.1 47.4823C224.704 41.7563 220.13 37.1741 214.35 34.7098C208.789 32.2467 202.678 31.2288 196.601 31.7535C190.525 32.2782 184.688 34.3281 179.65 37.7064C165.45 47.6788 162.25 74.6975 177.65 89.042C187.65 97.9828 207.95 98.867 218 90.8105C221.303 88.6301 224.035 85.7136 225.972 82.2987C227.91 78.8839 228.999 75.0674 229.15 71.1605H212.5C212.114 73.3968 211.354 75.5548 210.25 77.5468C209.042 79.4172 207.365 80.951 205.379 82.0009C203.394 83.0507 201.167 83.5814 198.913 83.542C196.658 83.5025 194.452 82.8942 192.506 81.7755C190.56 80.6568 188.939 79.0653 187.8 77.1538C185.64 72.6983 184.637 67.7865 184.882 62.8572C185.126 57.928 186.61 53.1351 189.2 48.9069C190.368 47.5766 191.791 46.4856 193.389 45.6963C194.986 44.907 196.726 44.435 198.51 44.3072C200.293 44.1795 202.084 44.3985 203.782 44.9517C205.479 45.505 207.048 46.3816 208.4 47.5314L208.85 47.9244C210.673 49.8818 211.75 52.3985 211.9 55.0476Z" fill="white"/>
<path d="M279.6 57.4059H251.65C251.65 57.4059 251.9 55.6374 252.05 54.9988C252.731 51.9596 254.448 49.24 256.916 47.2904C259.385 45.3407 262.458 44.2779 265.625 44.2779C268.792 44.2779 271.865 45.3407 274.333 47.2904C276.802 49.24 278.519 51.9596 279.2 54.9988C279.2 56.0304 279.6 57.4059 279.6 57.4059ZM296.85 64.5781C297.063 59.1904 295.958 53.831 293.626 48.95C291.294 44.0691 287.805 39.8091 283.45 36.5277C278.205 33.2977 272.14 31.5845 265.95 31.5845C259.76 31.5845 253.695 33.2977 248.45 36.5277C231.8 46.6966 228.15 76.9085 246.85 90.5653C252.499 94.1034 259.044 96.0156 265.743 96.0851C272.442 96.1545 279.026 94.3784 284.75 90.9582C289.895 87.0645 293.643 81.6614 295.45 75.533H280.45C280.24 76.2417 279.901 76.9074 279.45 77.498C273.95 85.2597 258.2 86.0457 253.5 76.5155C252.186 73.8507 251.503 70.9287 251.5 67.9678H296.5V64.5781" fill="white"/>
</g>
<defs>
<clipPath id="clip0_199_28">
<rect width="357" height="106" fill="white"/>
</clipPath>
</defs>
</svg>
