<svg width="601" height="140" viewBox="0 0 601 140" fill="none" xmlns="http://www.w3.org/2000/svg">
<path d="M302.4 0.700089L228.9 54.9001L265.1 139L225.7 139.1L201.1 75.7001L172.1 98.5001L163 139L0.600098 139.1L5.10009 113.3L99.6001 25.3001H29.9001L34.5001 0.700089L147.1 0.600098L142.3 23.6001L43.1001 114.5L137.7 114.4L163.6 0.600098L196.1 0.700089L181.7 60.3001L257.3 0.600098L302.4 0.700089Z" fill="#494C50"/>
<path d="M444.9 136.3H380L389.8 92.8002H436.2L432.3 110.2H404.5L402.5 118.9H448.8L444.9 136.3ZM456.7 84.1002H391.8L395.7 66.7002H460.6L456.7 84.1002Z" fill="#8AC142"/>
<path d="M520.2 118.9C519.3 122.9 518.4 125.6 517.6 127.3C516.2 130.2 514.1 132.3 511.3 133.8C508 135.5 503.4 136.4 497.6 136.4H469.8C463.8 136.4 459.6 135.5 457 133.6C454.9 132.1 453.9 129.8 453.9 126.7C453.9 125.6 454 124.3 454.3 123C454.4 122.4 454.7 121.1 455.2 119L461.1 92.9002H479.7L473.8 119H501.6L503.6 110.3H522.1L520.2 118.9ZM526.1 92.8002H507.6L509.6 84.1002H463.3C464.2 80.2002 465 77.4002 465.9 75.8002C467.3 72.9002 469.4 70.7002 472.1 69.3002C475.4 67.6002 480 66.7002 485.8 66.7002H513.6C519.6 66.7002 523.8 67.6002 526.3 69.5002C528.4 71.1002 529.4 73.4002 529.4 76.4002C529.4 77.5002 529.3 78.8002 529 80.2002C528.9 80.7002 528.6 82.1002 528.2 84.1002L526.1 92.8002Z" fill="#8AC142"/>
<path d="M591.6 118.9C590.7 122.8 589.8 125.6 589 127.3C587.6 130.2 585.5 132.3 582.7 133.8C579.4 135.5 574.8 136.4 569.1 136.4H541.3C535.3 136.4 531.1 135.5 528.5 133.6C526.5 132.1 525.4 129.8 525.4 126.7C525.4 125.6 525.5 124.3 525.8 123C525.9 122.4 526.2 121.1 526.7 119L532.6 92.9003H551.1L545.2 119H573L580.9 84.2003H534.5C535.4 80.3003 536.2 77.5003 537.1 75.9003C538.5 73.0003 540.6 70.8003 543.4 69.4003C546.7 67.7003 551.3 66.8003 557.1 66.8003H584.9C590.9 66.8003 595.1 67.7003 597.6 69.6003C599.6 71.2003 600.7 73.5003 600.7 76.5003C600.7 77.6003 600.6 78.9003 600.3 80.3003C600.2 80.8003 599.9 82.2003 599.4 84.2003L591.6 118.9Z" fill="#8AC142"/>
<path d="M302.3 0.700089L423.2 0.600098L415.3 25.6001H370.5L336.5 138.9L306 139L338.7 25.4001L268.6 25.6001L302.3 0.700089Z" fill="#8AC142"/>
</svg>
