<svg width="180" height="180" viewBox="0 0 180 180" fill="none" xmlns="http://www.w3.org/2000/svg">
<path d="M21.4453 174.727C21.4453 177.639 23.8064 180 26.7188 180H153.281C156.194 180 158.555 177.639 158.555 174.727V158.555H21.4453V174.727Z" fill="white"/>
<path d="M90 42.1875C60.9223 42.1875 37.2657 65.8441 37.2657 94.9219V148.008H142.734V94.9219C142.734 65.8441 119.078 42.1875 90 42.1875Z" fill="white"/>
<path d="M89.6485 31.6406C92.5608 31.6406 94.9219 29.2795 94.9219 26.3672V5.27344C94.9219 2.36109 92.5608 0 89.6485 0C86.7361 0 84.375 2.36109 84.375 5.27344V26.3672C84.375 29.2795 86.7361 31.6406 89.6485 31.6406Z" fill="white"/>
<path d="M48.1268 39.0945C49.5875 41.6247 52.8152 42.4765 55.3303 41.0246C57.8527 39.5684 58.7169 36.3432 57.2603 33.8211L46.7135 15.5535C45.2569 13.0311 42.0321 12.1673 39.51 13.6235C36.9875 15.0796 36.1234 18.3049 37.5799 20.827L48.1268 39.0945Z" fill="white"/>
<path d="M30.3018 66.3103C31.7584 63.7882 30.8942 60.563 28.3718 59.1068L10.1039 48.5599C7.58143 47.1034 4.3562 47.9675 2.90038 50.49C1.44386 53.0121 2.308 56.2373 4.83046 57.6935L23.0983 68.2404C25.6095 69.6906 28.8393 68.8437 30.3018 66.3103Z" fill="white"/>
<path d="M124.67 41.0244C127.181 42.4746 130.411 41.6274 131.873 39.0943L142.42 20.8268C143.877 18.3047 143.012 15.0795 140.49 13.6233C137.968 12.1664 134.742 13.0309 133.286 15.5534L122.74 33.8209C121.283 36.343 122.147 39.5682 124.67 41.0244Z" fill="white"/>
<path d="M177.1 50.4901C175.643 47.9677 172.418 47.1043 169.896 48.5601L151.628 59.1069C149.106 60.5631 148.242 63.7883 149.698 66.3104C151.159 68.8406 154.386 69.6925 156.902 68.2405L175.169 57.6937C177.692 56.2375 178.556 53.0126 177.1 50.4901Z" fill="white"/>
</svg>
