<svg width="180" height="180" viewBox="0 0 180 180" fill="none" xmlns="http://www.w3.org/2000/svg">
<g clip-path="url(#clip0_4_49)">
<path d="M41.8377 13.2118C38.925 12.3065 35.8316 13.9339 34.9264 16.8462L16.1325 77.3242C15.6977 78.7227 15.8365 80.2365 16.5182 81.5327C17.1999 82.8289 18.3685 83.801 19.767 84.2359L117.261 114.532L179.691 56.0497L41.8377 13.2118Z" fill="white"/>
<path d="M176.115 77.0465L174.099 76.4197L137.751 110.469L163.266 118.398C163.801 118.564 164.354 118.647 164.905 118.647C165.792 118.647 166.675 118.433 167.474 118.012C168.771 117.331 169.743 116.162 170.178 114.764L179.75 83.9583C180.655 81.0459 179.028 77.9514 176.115 77.0465Z" fill="white"/>
<path d="M61.4423 108.75L60.1823 112.806C59.2773 115.718 60.9044 118.812 63.8167 119.717L95.3908 129.529C95.9263 129.695 96.4786 129.778 97.0295 129.778C97.9165 129.778 98.7996 129.564 99.5994 129.143C100.896 128.462 101.868 127.293 102.303 125.894L103.563 121.839L61.4423 108.75Z" fill="white"/>
<path d="M71.8256 133.771L71.4336 135.184H32.0421C30.9153 123.849 21.3254 114.966 9.6989 114.966H5.52164C2.47219 114.966 0 117.438 0 120.488V161.517C0 164.567 2.47219 167.039 5.52164 167.039H9.6989C21.5276 167.039 31.2423 157.844 32.0875 146.227H75.6309C78.1116 146.227 80.2877 144.573 80.9515 142.183L82.3764 137.05L71.8256 133.771Z" fill="white"/>
</g>
<defs>
<clipPath id="clip0_4_49">
<rect width="180" height="180" fill="white"/>
</clipPath>
</defs>
</svg>
