<svg width="64" height="49" viewBox="0 0 64 49" fill="none" xmlns="http://www.w3.org/2000/svg">
<path d="M63.5888 10.6001C63.5888 4.97438 59.4508 0.448806 54.3376 0.448806C47.4117 0.125015 40.3483 0 33.1299 0H30.8797C23.6787 0 16.6029 0.125016 9.67698 0.450057C4.57634 0.450057 0.438315 5.00063 0.438315 10.6263C0.125776 15.0757 -0.00674071 19.5262 0.000760231 23.9768C-0.0117413 28.4273 0.129943 32.8821 0.425814 37.341C0.425814 42.9667 4.56384 47.5297 9.66448 47.5297C16.9404 47.8673 24.4038 48.0173 31.9923 48.0048C39.5933 48.0298 47.0359 47.8715 54.3201 47.5297C59.4333 47.5297 63.5713 42.9667 63.5713 37.341C63.8713 32.8779 64.0088 28.4273 63.9963 23.9643C64.0247 19.5137 63.8888 15.059 63.5888 10.6001ZM25.879 36.2408V11.6752L44.0063 23.9518L25.879 36.2408Z" fill="#1AC2C2"/>
</svg>
