<svg width="49" height="50" viewBox="0 0 49 50" fill="none" xmlns="http://www.w3.org/2000/svg">
<path d="M47.599 5.19565L47.518 5.14404L37.2855 0L26.2412 15.0263L31.3224 21.9399C31.1704 24.5472 30.0868 27.0072 28.2768 28.8541C26.4668 30.701 24.0561 31.8067 21.5009 31.9618L14.7256 26.7769L0 38.0463L4.99921 48.4004L5.04128 48.4878L5.09197 48.5703C5.35876 49.0089 5.73112 49.3706 6.17362 49.6208C6.61612 49.8711 7.11402 50.0016 7.61994 50H10.2603C15.3477 50 20.3852 48.9775 25.0854 46.9909C29.7855 45.0043 34.0561 42.0925 37.6534 38.4218C41.2508 34.751 44.1043 30.3932 46.0511 25.5972C47.998 20.8011 49 15.6608 49 10.4696V7.77521C49.0016 7.25898 48.8737 6.75091 48.6285 6.29938C48.3832 5.84785 48.0288 5.46788 47.599 5.19565ZM45.2186 10.4696C45.2186 30.1391 29.5363 46.1414 10.2603 46.1414H8.12381L4.77895 39.2126L14.7263 31.5998L20.2645 35.838H20.8947C24.6667 35.8337 28.2831 34.3028 30.9503 31.5811C33.6176 28.8594 35.1179 25.1693 35.1221 21.3203V20.6772L30.9686 15.0261L38.4283 4.87636L45.2186 8.29008V10.4696Z" fill="#1AC2C2"/>
</svg>
