<svg width="50" height="50" viewBox="0 0 50 50" fill="none" xmlns="http://www.w3.org/2000/svg">
<path d="M49.0676 0.902431C49.6183 1.53168 49.9519 2.4159 49.9952 3.36083C50.0385 4.30576 49.7879 5.23412 49.2985 5.94193L19.6332 48.8009C19.3723 49.178 19.0521 49.4798 18.6937 49.6865C18.3354 49.8931 17.947 50 17.5542 50C17.1614 50 16.773 49.8931 16.4146 49.6865C16.0563 49.4798 15.7361 49.178 15.4752 48.8009L0.642528 27.3714C0.181163 26.6587 -0.0464085 25.7437 0.00788786 24.8195C0.0621842 23.8954 0.394096 23.0345 0.933508 22.4188C1.47292 21.8031 2.17759 21.4807 2.89866 21.5198C3.61972 21.5589 4.30072 21.9564 4.79778 22.6284L17.5528 41.0541L45.1432 1.1953C45.6336 0.488684 46.3224 0.0609352 47.0582 0.00602145C47.7941 -0.0488923 48.5168 0.273519 49.0676 0.902431Z" fill="#1AC2C2"/>
</svg>
