<svg width="80" height="80" viewBox="0 0 80 80" fill="#1AC2C2" xmlns="http://www.w3.org/2000/svg">
<path d="M79.8826 60.4666L76.2494 76.2158C75.739 78.4423 73.782 80 71.4896 80C32.0655 79.9969 0 47.936 0 8.51611C0 6.22561 1.5578 4.26633 3.78473 3.75854L19.5362 0.125913C21.8302 -0.405622 24.1742 0.784942 25.1274 2.95702L32.3968 19.9093C33.2466 21.9061 32.6734 24.2325 30.9936 25.6043L22.5803 32.3587C27.8901 43.1737 36.6847 51.967 47.5045 57.2793L54.3926 48.8734C55.7503 47.1892 58.0946 46.6064 60.0916 47.4712L77.0463 54.738C79.0856 55.8106 80.4139 58.1855 79.8826 60.4666Z" fill="#1AC2C2"/>
</svg>
