<svg width="59" height="58" viewBox="0 0 59 58" fill="none" xmlns="http://www.w3.org/2000/svg">
<path d="M33.7315 30.5322L34.4549 26.773L30.8411 26.7738V23.7655C30.8411 22.6047 31.4076 22.2619 33.0097 22.2619H34.4549V18.5027C34.4549 18.5027 32.9734 18.5027 31.5645 18.5027C28.6213 18.5027 26.5072 20.3334 26.5072 23.7655V26.773H22.8934V30.5322H26.5072V41.0582H30.8411V30.5322H33.7315Z" fill="#1AC2C2"/>
<path d="M58.4037 29.0001C58.4037 13.4287 45.4631 0.805664 29.5 0.805664C13.5369 0.805664 0.596313 13.4287 0.596313 29.0001C0.596313 44.5715 13.5369 57.1946 29.5 57.1946C45.4631 57.1946 58.4037 44.5715 58.4037 29.0001Z" stroke="#1AC2C2" stroke-opacity="1"/>
</svg>
