<svg width="200" height="41" viewBox="0 0 200 41" fill="none" xmlns="http://www.w3.org/2000/svg">
<path fill-rule="evenodd" clip-rule="evenodd" d="M25.6552 3.29972L23.391 6.59932L34.9437 23.3935C41.2978 32.6302 46.5652 40.2585 46.6493 40.3454C46.7679 40.468 47.8218 40.4959 51.3773 40.4704L55.9526 40.4375L42.2164 20.5611C34.6615 9.62915 28.354 0.530786 28.1998 0.342398L27.9194 0L25.6552 3.29972ZM108.779 3.21347C107.555 4.98546 106.546 6.49632 106.539 6.57107C106.532 6.64595 111.756 14.3105 118.147 23.6035L129.769 40.5H134.362C136.889 40.5 138.956 40.4704 138.956 40.4341C138.956 40.3702 111.274 0.282769 111.095 0.088256C111.047 0.0352524 110.004 1.4416 108.779 3.21347ZM73.7808 0.403527C73.7492 0.489533 73.7078 6.55082 73.6889 13.8732L73.6546 27.1866L73.3673 28.1208C72.4531 31.0924 70.6337 33.012 67.9099 33.8784C67.2296 34.0948 66.6255 34.1704 65.1918 34.2186L63.3485 34.2806V37.3903V40.5L65.5667 40.499C67.9998 40.498 68.7762 40.407 70.4303 39.9287C75.9765 38.3249 79.6675 33.9663 80.7264 27.7705C80.9563 26.425 80.9693 25.6525 80.9693 13.2983V0.247267H77.4038C74.6652 0.247267 73.8249 0.283519 73.7808 0.403527ZM144.725 0.3694C144.748 0.436655 154.692 9.49227 166.824 20.4931L188.881 40.4946L194.432 40.4972C197.485 40.4988 199.943 40.4606 199.895 40.4125C199.847 40.3642 189.87 31.309 177.723 20.2895L155.639 0.254142L150.161 0.250642C146.647 0.248517 144.698 0.29102 144.725 0.3694ZM182.573 6.06516C179.066 9.26501 176.197 11.9089 176.197 11.9406C176.197 11.9722 178.665 11.9981 181.683 11.9981H187.168L193.086 6.60895C196.341 3.645 199.228 1.00107 199.502 0.73355L200 0.247267H194.474H188.949L182.573 6.06516ZM8.06084 28.7805L0 40.4375L4.58092 40.4704C8.1422 40.4959 9.19507 40.468 9.31129 40.3454C9.51625 40.129 25.2325 17.2707 25.2325 17.1889C25.2325 17.1529 23.1826 17.1234 20.6771 17.1234H16.1218L8.06084 28.7805ZM91.1544 28.7061C86.7555 35.0729 83.1376 40.3311 83.1147 40.3911C83.0915 40.4517 85.1133 40.5 87.6807 40.5H92.2884L100.219 28.9797C104.581 22.6435 108.195 17.3838 108.25 17.2914C108.333 17.1519 107.568 17.124 103.751 17.1268L99.1525 17.13L91.1544 28.7061ZM151.329 34.5716C147.823 37.7739 144.954 40.4179 144.954 40.447C144.954 40.4761 147.423 40.5 150.441 40.5H155.927L161.844 35.1133C165.099 32.1506 167.985 29.5066 168.259 29.2379L168.757 28.7492H163.231H157.704L151.329 34.5716Z" fill="black"/>
</svg>
