<svg width="200" height="103" viewBox="0 0 200 103" fill="none" xmlns="http://www.w3.org/2000/svg">
<path fill-rule="evenodd" clip-rule="evenodd" d="M0.458947 0.418036C-0.499339 1.37632 0.156232 3.12054 1.76445 3.89143L3.48798 4.71747V25.0696V45.4217L1.72747 46.2653C0.465842 46.8701 0.0221103 47.4937 0.16062 48.4677C0.351776 49.8102 0.500939 49.8258 13.2025 49.8258H26.0506V48.3041C26.0506 47.1528 25.6063 46.6633 24.2237 46.2935C23.219 46.0253 22.1661 45.4405 21.8834 44.9949C21.6008 44.5499 21.3651 34.2438 21.3595 22.0926L21.3501 0H11.1135C5.4829 0 0.688334 0.188022 0.458947 0.418036ZM25.1105 2.19359C25.1105 3.98356 25.3455 4.38718 26.3891 4.38718C28.1301 4.38718 32.0235 6.45041 33.6655 8.24351C34.4069 9.05263 35.537 10.8426 36.1775 12.2214C37.08 14.1643 37.6936 14.7284 38.9038 14.7284H40.4656L40.6424 7.3642L40.8185 0H32.9648H25.1105V2.19359ZM151.085 3.41135V6.2674H145.758H140.431V28.2033V50.1392H170.201H199.971V28.2033V6.2674H194.957H189.943V3.41135V0.554666L187.28 0.747701C184.629 0.939484 184.615 0.953272 184.423 3.60376L184.23 6.2674H170.514H156.798L156.605 3.60376C156.413 0.953272 156.399 0.939484 153.749 0.747701L151.085 0.554666V3.41135ZM197.464 28.2102V47.6454L170.358 47.4825L143.251 47.3189L143.085 28.8376C142.993 18.6725 143.055 9.99964 143.222 9.56531C143.459 8.94546 149.365 8.77436 170.495 8.77436H197.464V28.2102ZM29.5384 17.1395C28.8753 18.6869 27.4671 20.5928 26.4085 21.3756C23.7386 23.3492 23.726 26.2009 26.3809 27.7113C27.5341 28.3675 28.745 29.8942 29.4883 31.6284C30.4804 33.943 31.0044 34.4707 32.3118 34.4707H33.9168L33.7439 24.5995C33.5746 14.8926 33.5477 14.7253 32.1582 14.5278C31.0056 14.3643 30.5218 14.8468 29.5384 17.1395ZM44.5395 20.7194C43.7354 21.2709 43.803 21.5072 45.0095 22.3533C46.3758 23.3116 46.4197 23.6682 46.4222 33.7637C46.4241 42.854 46.5745 44.4315 47.6017 46.1155C49.0275 48.4545 52.2383 50.0709 56.4482 50.5692C59.3468 50.9126 59.5812 50.8405 59.5812 49.5996C59.5812 48.8625 59.0172 47.6949 58.3277 47.0055C57.1676 45.8454 57.0743 44.9166 57.0743 34.5472C57.0743 23.744 57.1231 23.3097 58.4349 22.4392C61.0165 20.725 59.2516 20.0551 52.18 20.0651C48.4948 20.0707 45.0565 20.3653 44.5395 20.7194ZM64.2448 20.7426C64.011 21.1199 64.6998 22.2324 65.7747 23.2138L67.7288 24.9988L67.7194 33.9656C67.7094 43.9696 67.2763 45.5439 64.1357 47.0055C62.7206 47.6636 62.1114 48.3806 62.102 49.3978C62.0907 50.613 62.3188 50.7816 63.4983 50.4294C65.8655 49.723 67.7288 48.2891 69.0099 46.1882C70.0798 44.4334 70.2314 42.995 70.2333 34.5923L70.2358 24.9988L72.2727 23.1342C73.9687 21.5818 74.1523 21.17 73.3695 20.6724C72.0665 19.8445 64.765 19.9003 64.2448 20.7426ZM77.9535 21.0735C77.7185 21.6858 77.976 22.322 78.6003 22.6711C79.509 23.18 79.6369 24.7518 79.6369 35.4422C79.6369 45.8598 79.5003 47.6322 78.6968 47.6322C78.1747 47.6322 77.7567 48.1894 77.7567 48.8857C77.7567 50.0552 78.1747 50.1392 84.0116 50.1392H90.2664L90.4356 36.821C90.6023 23.6864 90.6243 23.494 92.015 22.8842C93.6552 22.1647 93.857 20.9826 92.4337 20.4361C91.8884 20.2268 88.4952 20.0557 84.8934 20.0557C79.4282 20.0557 78.2794 20.2243 77.9535 21.0735ZM103.89 20.4549C103.135 21.2095 103.415 22.5626 104.326 22.5626C105.773 22.5626 105.96 24.0706 105.96 35.7536C105.96 46.3199 105.889 46.9999 104.707 47.6322C104.017 48.0014 103.453 48.7165 103.453 49.221C103.453 49.9694 104.672 50.1392 110.034 50.1392H116.615V36.6054C116.615 23.4927 116.655 23.0615 117.898 22.7362C118.654 22.5388 119.102 21.9829 118.987 21.385C118.824 20.5308 117.642 20.3409 111.56 20.1936C107.581 20.097 104.13 20.2142 103.89 20.4549ZM151.712 22.876V25.6963H148.892C146.086 25.6963 146.071 25.7083 146.071 27.8899C146.071 30.0716 146.086 30.0835 148.892 30.0835H151.712V32.9039C151.712 35.7091 151.724 35.7242 153.906 35.7242C156.087 35.7242 156.099 35.7091 156.099 32.9039V30.0835H158.92C161.725 30.0835 161.74 30.0716 161.74 27.8899C161.74 25.7083 161.725 25.6963 158.92 25.6963H156.099V22.876C156.099 20.0707 156.087 20.0557 153.906 20.0557C151.724 20.0557 151.712 20.0707 151.712 22.876ZM179.289 27.8899V30.0835H187.123H194.957V27.8899V25.6963H187.123H179.289V27.8899ZM98.0267 42.7418C96.8083 45.0156 95.6019 46.3487 94.2086 46.9616C92.9852 47.5006 92.1717 48.3141 92.1717 48.9985C92.1717 50.0007 92.7458 50.1392 96.8973 50.1392H101.624L101.441 45.0187C101.328 41.8431 100.984 39.8074 100.534 39.6589C100.134 39.5266 99.0063 40.9142 98.0267 42.7418ZM125.672 39.996C125.344 40.2317 124.511 41.5485 123.822 42.921C123.133 44.2942 121.663 45.9864 120.556 46.6815C119.449 47.3772 118.532 48.4389 118.519 49.0424C118.498 49.985 119.112 50.1392 122.882 50.1392H127.269V45.1623C127.269 40.3188 126.897 39.1161 125.672 39.996ZM0.458947 52.4375C-0.499339 53.3958 0.156232 55.14 1.76445 55.9109L3.48798 56.7369V77.089V97.4412L1.76445 98.2672C-0.432904 99.3201 -0.62406 101.835 1.45108 102.391C2.22635 102.598 7.02154 102.772 12.1057 102.777L21.3501 102.785V77.4024V52.0194H11.1135C5.4829 52.0194 0.688334 52.2075 0.458947 52.4375ZM25.1105 54.0833C25.1105 55.9911 25.318 56.2023 27.8563 56.8811C31.4462 57.8412 34.2033 60.2266 36.1399 64.0484C37.3927 66.5203 37.9831 67.1013 39.0862 66.944C40.4067 66.756 40.4732 66.4319 40.6424 59.3836L40.8185 52.0194H32.9648H25.1105V54.0833ZM29.5384 69.1589C28.8753 70.7063 27.4671 72.6122 26.4085 73.395C23.7041 75.3943 23.7624 78.1727 26.5451 79.9194C27.845 80.736 28.8816 82.1161 29.4726 83.8202C30.4265 86.5685 31.3453 87.3306 32.9604 86.7107C33.7708 86.3999 33.8899 84.8556 33.7439 76.5456C33.5746 66.9145 33.5477 66.7447 32.1582 66.5473C31.0056 66.3837 30.5218 66.8663 29.5384 69.1589ZM165.324 72.5201C164.53 73.3142 163.989 73.3612 162.327 72.7821C161.212 72.3935 159.475 72.0751 158.466 72.0751C155.902 72.0751 156.372 74.0161 159.108 74.725C160.597 75.111 161.687 76.0706 163.017 78.167C164.031 79.7658 165.023 81.5878 165.223 82.2151C165.422 82.8431 166.13 83.3564 166.796 83.3564C167.903 83.3564 168.007 82.8738 168.007 77.7828C168.007 71.8946 167.312 70.5315 165.324 72.5201ZM45.3229 72.49C44.0606 72.9996 44.4191 74.1966 46.137 75.2088C47.022 75.7303 51.4236 81.8692 56.0226 88.9971L64.3125 101.845L67.9012 102.033L71.4893 102.221V97.5283V92.8352L64.8496 82.4552L58.2093 72.0751L52.1581 72.1246C48.8295 72.1516 45.7541 72.3164 45.3229 72.49ZM65.4444 73.0259C65.2219 73.605 65.7195 74.4799 66.7179 75.2646C68.1864 76.4203 68.3556 76.9781 68.3556 80.6646C68.3556 83.8378 68.6771 85.2924 69.7657 87.0429L71.1759 89.3105L71.3545 82.914C71.53 76.6014 71.5576 76.4993 73.4171 75.175C74.9213 74.1039 75.1545 73.6557 74.5722 72.9538C73.5099 71.674 65.9401 71.7335 65.4444 73.0259ZM78.3834 72.7388C77.5793 73.2904 77.647 73.5266 78.8535 74.3727C80.2329 75.3398 80.2636 75.6256 80.2636 87.4334C80.2636 99.1797 80.2279 99.515 78.9444 99.8503C78.2173 100.04 77.7473 100.566 77.8983 101.02C78.0951 101.614 79.959 101.895 84.5449 102.024L90.9182 102.203V87.1388V72.0751L85.1209 72.0845C81.932 72.0901 78.9005 72.3847 78.3834 72.7388ZM93.4252 73.642C93.4252 74.6391 93.778 75.2088 94.3966 75.2088C96.3 75.2088 98.8352 77.027 100.033 79.2507C101.981 82.8682 103.106 81.9657 103.324 76.6121L103.508 72.0751H98.4667C93.5067 72.0751 93.4252 72.1008 93.4252 73.642ZM107.997 72.49C106.784 72.9795 107.072 74.453 108.467 74.8954C109.662 75.2746 109.72 75.8437 109.72 87.1369C109.72 98.3393 109.653 99.0174 108.467 99.6517C107.778 100.021 107.213 100.744 107.213 101.259C107.213 102.05 108.448 102.169 115.153 102.021C120.797 101.896 123.168 101.62 123.351 101.066C123.494 100.637 122.883 100.01 121.993 99.6711L120.375 99.0563V85.5657V72.0751L114.578 72.1246C111.389 72.1516 108.428 72.3164 107.997 72.49ZM122.255 73.5379C122.255 74.5357 122.688 75.1762 123.509 75.3906C124.634 75.6845 124.762 76.2454 124.762 80.8495C124.762 85.4535 124.634 86.0144 123.509 86.3084C122.819 86.4889 122.255 87.1576 122.255 87.7944C122.255 88.4318 122.819 89.2547 123.509 89.6238C124.521 90.1653 124.762 90.9362 124.762 93.6262C124.762 98.1074 125.779 100.751 127.933 101.864C131.426 103.671 137.014 102.523 138.532 99.6861C139.659 97.5809 139.328 96.9579 137.297 97.3641L135.417 97.7401V94.4059C135.417 90.7457 134.69 89.6852 131.169 88.2049L129.153 87.3569L131.551 86.2983C134.341 85.0674 135.689 82.9265 135.602 79.8611C135.475 75.3887 132.625 73.1462 126.172 72.4411C122.324 72.0206 122.255 72.0394 122.255 73.5379ZM147.561 74.112C143.317 76.9555 141.538 80.4133 141.186 86.5027C140.957 90.4587 141.145 91.835 142.26 94.3557C143.004 96.0366 144.095 97.9563 144.685 98.6207C145.926 100.019 151.509 102.77 153.122 102.779C154.482 102.787 154.585 100.735 153.279 99.6517C152.506 99.0105 152.339 96.8376 152.339 87.4509C152.339 76.8258 152.426 75.9509 153.592 74.8954C157.242 71.5925 152.282 70.9482 147.561 74.112ZM171.356 73.0453C171.151 73.5787 171.406 74.3546 171.922 74.7688C172.438 75.1831 174.447 79.005 176.387 83.2618C179.504 90.1002 179.915 91.4708 179.915 95.0288C179.915 98.7818 179.805 99.0976 178.298 99.6711C177.408 100.01 176.796 100.637 176.939 101.066C177.124 101.623 179.556 101.895 185.451 102.02C192.57 102.171 193.704 102.061 193.704 101.221C193.704 100.686 192.999 99.9795 192.137 99.6517C190.629 99.0788 190.57 98.8463 190.571 93.5566C190.572 88.2976 190.444 87.79 187.646 81.9544C184.764 75.9427 184.738 75.8324 185.897 74.552C187.689 72.5709 186.262 72.0958 178.486 72.0845C172.958 72.077 171.661 72.2519 171.356 73.0453ZM190.691 72.8316C190.1 73.422 190.313 73.8902 191.662 74.9669C193.544 76.4692 193.593 75.8769 191.078 82.0522C190.545 83.3627 190.519 84.2972 190.989 85.3426C191.598 86.7001 191.826 86.4425 194.21 81.7075C195.621 78.9047 197.541 76.0543 198.476 75.3736C201.302 73.3148 200.151 72.0751 195.415 72.0751C193.152 72.0751 191.122 72.4004 190.691 72.8316ZM48.1946 89.2346C47.9884 97.8228 47.9727 97.9043 46.263 99.2662C43.3994 101.547 44.0218 102.159 49.203 102.159C54.655 102.159 55.5676 101.407 52.7704 99.2173L50.8069 97.6806L50.7931 90.6755C50.7812 84.7729 50.5919 83.426 49.5904 82.123C48.4039 80.5793 48.4021 80.5913 48.1946 89.2346ZM96.0306 83.0167C95.3104 84.2376 94.4292 85.2367 94.0732 85.2367C93.0899 85.2367 93.2986 88.361 94.3076 88.7483C94.7934 88.9344 95.5329 89.9128 95.951 90.9224C96.4172 92.0487 97.175 92.7575 97.912 92.7575C99.0213 92.7575 99.0991 92.3188 98.933 87.0109C98.7305 80.5587 98.0411 79.6098 96.0306 83.0167ZM38.1072 86.8643C37.9017 87.0699 36.9966 88.7426 36.0973 90.5821C34.3599 94.1326 30.4773 97.3189 26.9425 98.0955C25.3531 98.4446 25.1105 98.7818 25.1105 100.641V102.785H33.2581H41.4058V95.6293C41.4058 91.6933 41.2347 88.0269 41.0253 87.4816C40.6524 86.5089 38.8443 86.1266 38.1072 86.8643ZM155.472 88.035C155.472 88.5396 156.037 89.2547 156.726 89.6238C157.808 90.2029 157.979 90.9362 157.979 94.9931C157.979 98.5906 157.759 99.7758 157.039 100.052C156.522 100.25 156.099 100.982 156.099 101.679C156.099 102.815 156.372 102.903 158.763 102.536C160.228 102.311 162.696 101.484 164.247 100.698L167.067 99.2694L167.256 94.9304C167.378 92.1189 167.785 90.2149 168.414 89.521C170.144 87.6095 168.833 87.1169 162.016 87.1169C156.687 87.1169 155.472 87.2873 155.472 88.035ZM100.892 94.1677C99.6356 96.6089 97.0772 98.9491 95.217 99.3577C94.0043 99.6241 93.4252 100.141 93.4252 100.955C93.4252 102.041 93.9122 102.159 98.4391 102.159H103.453V97.4581C103.453 93.7478 103.259 92.7575 102.535 92.7575C102.03 92.7575 101.291 93.3918 100.892 94.1677Z" fill="black"/>
</svg>
