<svg width="800" height="192" viewBox="0 0 800 192" fill="none" xmlns="http://www.w3.org/2000/svg">
<path d="M488.1 0.933105C462.877 0.941895 438.688 10.9564 420.84 28.7791C402.993 46.6019 392.944 70.777 392.9 95.9998C393.701 120.71 404.08 144.14 421.843 161.337C439.606 178.533 463.36 188.148 488.083 188.148C512.806 188.148 536.561 178.533 554.324 161.337C572.086 144.14 582.466 120.71 583.267 95.9998C583.231 70.7801 573.19 46.6048 555.348 28.7812C537.506 10.9575 513.32 0.941911 488.1 0.933105ZM160.8 1.13312C138.704 1.13309 117.511 9.90153 101.874 25.5132C86.2377 41.1249 77.4353 62.3038 77.4 84.3998V182.866C77.4 185.8 79.8 188.2 82.7333 188.2H115.167C116.581 188.2 117.938 187.638 118.938 186.638C119.938 185.637 120.5 184.281 120.5 182.866V84.3998C120.923 73.9952 125.354 64.1574 132.866 56.9454C140.377 49.7333 150.387 45.7059 160.8 45.7059C171.213 45.7059 181.223 49.7333 188.734 56.9454C196.246 64.1574 200.677 73.9952 201.1 84.3998V182.866C201.1 185.8 203.533 188.2 206.5 188.2H238.867C240.287 188.2 241.651 187.64 242.662 186.642C243.672 185.643 244.249 184.287 244.267 182.866V84.3998C244.69 73.9952 249.121 64.1574 256.632 56.9454C264.144 49.7333 274.153 45.7059 284.567 45.7059C294.98 45.7059 304.99 49.7333 312.501 56.9454C320.012 64.1574 324.443 73.9952 324.867 84.3998V182.866C324.867 185.8 327.233 188.2 330.2 188.2H362.633C364.048 188.2 365.404 187.638 366.405 186.638C367.405 185.637 367.967 184.281 367.967 182.866V84.3998C367.931 62.3038 359.129 41.1249 343.492 25.5132C327.856 9.90153 306.663 1.13309 284.567 1.13312C260 1.13312 238 11.8331 222.733 28.7331C214.924 20.0456 205.373 13.0986 194.703 8.34354C184.033 3.58847 172.482 1.13179 160.8 1.13312ZM5.33333 5.49977C3.91885 5.49977 2.56229 6.06167 1.5621 7.06186C0.561903 8.06206 0 9.41861 0 10.8331L0 182.833C0 185.833 2.36667 188.166 5.33333 188.166H37.4333C38.1381 188.171 38.8368 188.036 39.4896 187.771C40.1424 187.505 40.7365 187.113 41.2379 186.618C41.7394 186.123 42.1383 185.534 42.4121 184.884C42.6858 184.235 42.829 183.538 42.8333 182.833V10.8331C42.8158 9.41252 42.2391 8.05608 41.2283 7.05776C40.2175 6.05944 38.854 5.49967 37.4333 5.49977H5.33333ZM615 5.49977C614.292 5.49097 613.59 5.62218 612.933 5.88585C612.277 6.14953 611.679 6.54046 611.174 7.03614C610.669 7.53183 610.267 8.12248 609.991 8.77412C609.715 9.42576 609.571 10.1255 609.567 10.8331V59.1665C609.567 62.1331 612 64.4998 614.967 64.4998H647.067C648.481 64.4998 649.838 63.9379 650.838 62.9377C651.838 61.9375 652.4 60.5809 652.4 59.1665V10.8331C652.4 9.41861 651.838 8.06206 650.838 7.06186C649.838 6.06167 648.481 5.49977 647.067 5.49977H614.967H615ZM762.567 5.49977C761.862 5.49538 761.163 5.62987 760.51 5.89552C759.858 6.16117 759.263 6.55278 758.762 7.04803C758.261 7.54328 757.862 8.13246 757.588 8.78191C757.314 9.43135 757.171 10.1283 757.167 10.8331V59.1665C757.167 62.1331 759.6 64.4998 762.567 64.4998H794.667C796.081 64.4998 797.438 63.9379 798.438 62.9377C799.438 61.9375 800 60.5809 800 59.1665V10.8331C800 9.41861 799.438 8.06206 798.438 7.06186C797.438 6.06167 796.081 5.49977 794.667 5.49977H762.567ZM488.1 43.7331C516.967 43.7331 540.433 67.1664 540.433 95.9998C540.433 109.893 534.914 123.217 525.091 133.04C515.267 142.864 501.943 148.383 488.05 148.383C474.157 148.383 460.833 142.864 451.009 133.04C441.186 123.217 435.667 109.893 435.667 95.9998C435.667 67.1664 459.2 43.7331 488.1 43.7331ZM614.967 85.6664C613.546 85.6663 612.182 86.2261 611.172 87.2244C610.161 88.2227 609.584 89.5792 609.567 90.9998V93.6665C609.567 145.133 649.567 189.033 701.1 191C713.891 191.488 726.648 189.394 738.611 184.842C750.575 180.29 761.498 173.374 770.729 164.507C779.96 155.64 787.31 145.004 792.339 133.233C797.368 121.463 799.973 108.8 800 95.9998V90.9998C800 89.5853 799.438 88.2287 798.438 87.2285C797.438 86.2284 796.081 85.6664 794.667 85.6664H762.567C761.146 85.6663 759.782 86.2261 758.772 87.2244C757.761 88.2227 757.184 89.5792 757.167 90.9998V95.9998C757.167 109.893 751.648 123.217 741.824 133.04C732 142.864 718.676 148.383 704.783 148.383C690.89 148.383 677.566 142.864 667.743 133.04C657.919 123.217 652.4 109.893 652.4 95.9998V90.9998C652.4 89.5853 651.838 88.2287 650.838 87.2285C649.838 86.2284 648.481 85.6664 647.067 85.6664H614.967Z" fill="black"/>
</svg>
