<svg width="200" height="104" viewBox="0 0 200 104" fill="none" xmlns="http://www.w3.org/2000/svg">
<path fill-rule="evenodd" clip-rule="evenodd" d="M45.8222 0.149333C40.1617 0.841314 34.1623 2.62773 29.0163 5.15354C20.4125 9.37667 13.4051 15.6203 8.03994 23.8441C4.99967 28.5043 1.96741 36.0565 0.935281 41.5397C-0.392562 48.5942 -0.30071 56.9951 1.17373 63.3317C4.74198 78.6669 14.6377 91.2659 28.6429 98.3046C33.5782 100.785 39.0407 102.507 44.6769 103.36C48.2559 103.901 55.4891 103.907 59.1075 103.371C83.7048 99.7296 102.111 79.8751 103.776 55.1871C104.525 44.0776 101.519 32.6463 95.4137 23.386C87.4318 11.2799 75.0352 3.09088 60.8978 0.585228C58.6732 0.191021 56.9626 0.0698503 52.8084 0.012357C49.9109 -0.027957 46.7671 0.0336592 45.8222 0.149333ZM18.5475 35.4065C18.9978 35.638 19.6341 36.1207 19.9617 36.4785C20.4711 37.0353 25.262 44.4838 28.6429 49.9752C31.174 54.0863 33.7541 58.1246 34.1536 58.6003C34.5265 59.0442 34.6222 59.0694 34.8192 58.7753C34.9658 58.5566 35.0508 54.2066 35.0531 46.8L35.0565 35.1683L37.8625 35.2326L40.6684 35.297L40.7275 49.1238C40.7683 58.6665 40.7083 63.2415 40.5337 63.8897C39.9295 66.1333 37.6082 67.2798 34.6964 66.7726C32.6769 66.421 31.7322 65.5261 29.37 61.726C28.3218 60.0402 26.4486 57.0631 25.2073 55.1104C23.9658 53.1577 22.6375 51.0446 22.2552 50.4147C20.062 46.8007 17.4778 42.8753 17.2393 42.7958C16.5945 42.581 16.5029 44.1299 16.5029 55.2469V66.5775L13.697 66.5131L10.891 66.4487L10.8942 52.1327C10.8977 36.4718 10.8374 37.2007 12.237 35.8932C13.4936 34.7193 16.7272 34.4699 18.5475 35.4065ZM112.249 50.0402C112.249 64.6614 112.256 64.9076 112.717 65.4938C112.975 65.8213 113.568 66.1954 114.034 66.325C114.554 66.4693 118.634 66.5612 124.561 66.5619L134.238 66.5633V65.4205V64.2777L124.682 64.2179L115.125 64.1582L114.836 63.5855C114.612 63.1428 114.545 59.8551 114.543 49.0977L114.539 35.1825H113.394H112.249V50.0402ZM135.483 35.4823C135.415 35.6605 135.39 36.4134 135.428 37.1551L135.498 38.5038H136.758H138.018V36.9004V35.297L136.813 35.2276C135.936 35.1772 135.574 35.2468 135.483 35.4823ZM166.535 50.8729V66.5633H167.681H168.826V55.7825V45.0014L174.151 45.074C180.425 45.1593 180.882 45.2864 181.879 47.2221L182.455 48.3397L182.569 57.3941L182.684 66.4487L183.772 66.5186L184.86 66.5885V57.6003C184.86 47.063 184.792 46.5847 183.042 44.7799C181.449 43.1374 180.63 42.9704 174.167 42.9704H168.826V39.0764V35.1825H167.681H166.535V50.8729ZM190.815 39.0764V42.9704H189.212H187.608V44.0011V45.0319H189.199H190.79L190.86 53.7933C190.936 63.2694 190.97 63.5406 192.258 64.9218C193.366 66.11 194.391 66.4219 197.229 66.4359L199.863 66.4487L199.932 65.5158L200 64.5826L197.475 64.3542C194.757 64.1082 194.345 63.9172 193.598 62.5552C193.271 61.9592 193.211 60.7461 193.148 53.4562L193.076 45.0447L196.355 44.9811L199.634 44.9174L199.704 43.9503L199.774 42.9832L196.497 42.9195L193.22 42.8559L193.158 39.0192L193.095 35.1825H191.955H190.815V39.0764ZM86.9379 42.9711C90.2013 43.5176 92.6206 45.2841 93.6395 47.8644C94.4748 49.9798 94.9141 53.0519 94.7575 55.6831C94.2485 64.2301 90.7847 67.0548 81.2115 66.7302C75.9164 66.5509 73.2761 65.5105 71.5464 62.9222C70.0683 60.7104 69.7875 59.4375 69.7722 54.8814C69.7573 50.4752 69.93 49.4777 71.0931 47.2462C72.0323 45.4449 73.6451 44.0685 75.5687 43.4269C77.9811 42.6222 83.5277 42.3998 86.9379 42.9711ZM61.0893 43.3389C63.1133 43.7588 64.9961 45.0182 65.8963 46.554C67.1996 48.7781 67.5554 52.8494 66.6034 54.6493C65.6448 56.4621 65.5287 56.4848 57.1946 56.4848H49.8919L50.0559 58.0309C50.2439 59.8045 50.5957 60.7711 51.2728 61.374C52.3265 62.3124 53.2095 62.4196 59.9665 62.4302L66.4373 62.4402V64.5017V66.5633H58.8988C52.2266 66.5633 51.205 66.5149 50.0084 66.1425C46.7884 65.1404 45.3588 63.2211 44.6769 58.9849C44.3507 56.9596 44.4891 50.7611 44.8968 49.1226C45.5366 46.5522 47.6029 44.3477 50.114 43.5561C52.6185 42.7665 57.8321 42.6635 61.0893 43.3389ZM135.439 54.7096L135.498 66.4487H136.643H137.789L137.848 54.7096L137.907 42.9704H136.643H135.379L135.439 54.7096ZM147.307 43.3284C145.753 43.7554 143.802 45.228 143.018 46.5661C141.752 48.7261 141.486 50.0755 141.488 54.3087C141.49 58.3894 141.742 60.0599 142.686 62.2616C143.325 63.7534 144.785 65.2625 146.212 65.9068C147.355 66.4233 147.678 66.4508 153.422 66.5223C159.422 66.5969 159.434 66.5981 159.432 67.0956C159.429 67.8123 158.445 69.7971 157.798 70.3922C156.548 71.5407 155.631 71.6886 149.184 71.78L143.171 71.8652V72.8793V73.8931L148.955 73.8894C155.257 73.8855 156.58 73.714 158.363 72.669C159.775 71.8417 160.705 70.6448 161.322 68.8616C161.832 67.3883 161.84 67.1932 161.84 56.3299C161.84 45.5422 161.829 45.2809 161.367 44.6622C160.195 43.0916 160.187 43.09 154.093 43.0354C149.763 42.9967 148.282 43.0606 147.307 43.3284ZM158.744 45.3739C159.268 45.6451 159.435 45.9188 159.545 46.691C159.621 47.2274 159.653 51.4283 159.616 56.0266L159.549 64.3872L153.823 64.3822C148.433 64.3774 148.042 64.3485 147.18 63.8911C146.14 63.3397 145.676 62.8688 145.152 61.8337C143.908 59.3757 143.636 52.2761 144.659 48.9561C145.171 47.295 146.375 46.0361 147.985 45.4806C149.045 45.1146 149.932 45.0456 153.662 45.0395C157.146 45.0335 158.223 45.1043 158.744 45.3739ZM80.0135 46.8795C77.6714 47.3351 76.2577 48.4348 75.6163 50.3002C75.1745 51.5848 74.9592 54.4622 75.149 56.5445C75.4214 59.5333 76.4604 61.1894 78.6919 62.1919C79.8298 62.703 83.5399 62.7907 85.0807 62.3427C86.8321 61.8337 88.2559 60.5322 88.815 58.9295C89.3378 57.431 89.4007 51.8463 88.9108 50.442C88.4678 49.1726 87.2384 47.9171 85.8565 47.3225C84.5445 46.7581 81.7337 46.5451 80.0135 46.8795ZM53.6033 47.1626C52.1554 47.4895 50.9977 48.2272 50.538 49.116C50.3639 49.4527 50.1475 50.3206 50.057 51.0449L49.8925 52.3617H55.3998C61.465 52.3617 61.6271 52.3253 61.6271 50.9636C61.6271 49.3606 60.3467 47.7767 58.6963 47.338C57.2182 46.945 54.9183 46.866 53.6033 47.1626Z" fill="black"/>
</svg>
