<svg width="602" height="208" viewBox="0 0 602 208" fill="none" xmlns="http://www.w3.org/2000/svg">
<g clip-path="url(#clip0_199_10)">
<rect width="602" height="208" fill="black"/>
<path d="M0 104V208H301H602V104V5.24521e-06H301H0V104ZM89.3594 48.0316C60.6031 55.4211 36.55 61.579 36.0125 61.579C35.3406 61.579 34.9375 55.4211 34.9375 47.8947V34.2105L88.4188 34.3474L141.766 34.4842L89.3594 48.0316ZM178.45 51.5895L178.047 67.7368L167.297 69.2421C90.8375 80.4632 41.6563 87.8526 38.5656 88.4L34.8031 89.2211L35.2063 80.4632L35.6094 71.8421L105.484 53.779C143.916 43.9263 176.166 35.7158 177.106 35.7158C178.45 35.579 178.719 39.2737 178.45 51.5895ZM249.4 77.179C249.803 78.2737 249.4 80.8737 248.325 83.0632C246.578 86.7579 246.175 86.8947 234.753 87.3053C223.6 87.7158 223.063 87.8526 222.256 91.1368C221.047 95.9263 223.6 98.1158 232.2 99.8947C248.863 103.179 251.281 105.779 251.416 119.737C251.55 128.632 251.416 129.453 247.384 133.011C243.219 136.842 242.95 136.842 225.078 136.842H206.938V131.368V125.895H220.106C234.484 125.895 236.5 125.074 236.5 118.779C236.5 114.263 234.484 113.168 222.525 110.705C216.881 109.611 213.388 107.968 210.7 105.368C207.341 101.947 206.938 100.442 206.938 92.779C206.938 77.8632 210.431 75.5368 234.216 75.4C245.638 75.2632 248.863 75.6737 249.4 77.179ZM304.763 79.0947C305.569 84.4316 301.538 87.579 294.013 87.579H287.563V112.211V136.842H280.172H272.781V112.211V87.579H264.047H255.313V82.379C255.313 79.5053 255.716 76.6316 256.253 76.0842C256.791 75.6737 267.809 75.4 280.709 75.5368C304.359 75.9474 304.359 75.9474 304.763 79.0947ZM354.75 79.779C354.75 86.6211 352.869 87.579 339.7 87.579H327.875V93.7368V99.7579L337.684 100.168L347.359 100.579V106.053V111.526L337.684 111.937L327.875 112.347V119.053V125.895H341.313H354.75V131.368V136.842H333.25H311.75V107.011C311.75 90.5895 312.153 76.6316 312.691 76.2211C313.094 75.6737 322.769 75.2632 334.191 75.2632H354.75V79.779ZM407.156 79.779C407.156 86.6211 405.275 87.579 392.106 87.579H380.281V93.7368V99.8947H389.688H399.094V106.053V112.211H389.688H380.281V119.053V125.895H393.719H407.156V131.368V136.842H385.656H364.156V107.011C364.156 90.5895 364.559 76.6316 365.097 76.2211C365.5 75.6737 375.175 75.2632 386.597 75.2632H407.156V79.779ZM432.419 100.853L432.688 125.895H445.453H458.219V131.368V136.842H437.391H416.563V107.011C416.563 90.5895 416.966 76.6316 417.503 76.0842C418.041 75.5368 421.534 75.2632 425.297 75.5368L432.016 75.9474L432.419 100.853ZM507.534 78.5474L511.297 81.8316L511.7 105.095L512.103 128.358L508.072 133.011L504.175 137.526H487.781H471.388L467.491 133.011L463.459 128.358L463.863 105.095L464.266 81.8316L468.028 78.5474C471.522 75.5368 472.866 75.2632 487.781 75.2632C502.697 75.2632 504.041 75.5368 507.534 78.5474ZM545.294 86.4842C547.981 92.779 551.878 101.263 553.894 105.368L557.522 112.895L556.581 105.368C556.044 101.263 555.641 92.9158 555.641 86.8947V75.9474H563.031H570.422L570.825 106.326L571.094 136.842H562.628H554.028L549.191 126.168C546.503 120.421 542.875 112.211 540.994 108.105L537.769 100.579L538.441 118.642L539.247 136.842H531.722H524.063V107.011C524.063 90.5895 524.466 76.6316 525.003 76.2211C525.406 75.6737 529.169 75.2632 533.066 75.2632H540.322L545.294 86.4842ZM178.719 106.737V135.611L174.419 134.789C172 134.379 140.959 130.411 105.484 125.895C70.0094 121.379 39.6406 117.411 38.0281 117C35.2063 116.316 34.9375 115.495 34.9375 107.421C34.9375 101.263 35.475 98.5263 36.6844 98.5263C37.4906 98.3895 68.2625 93.8737 104.813 88.4C141.363 82.7895 172.941 78.2737 175.091 78.1368L178.719 78V106.737ZM51.0625 128.632C61.0063 130 176.569 145.053 177.913 145.053C178.316 145.053 178.719 152.853 178.719 162.295C178.719 178.032 178.45 179.537 176.434 178.989C175.091 178.579 142.706 170.368 104.544 160.653L34.9375 143V135.2C34.9375 127.4 35.0719 127.263 38.7 127.263C40.7156 127.263 46.225 127.947 51.0625 128.632ZM91.375 167.768L140.422 180.358L87.7469 180.495L34.9375 180.632V166.947V153.263L38.7 154.221C40.7156 154.632 64.3656 160.789 91.375 167.768Z" fill="white"/>
<path d="M480.659 87.0314C480.122 87.5787 479.719 96.6103 479.719 107.01V125.895H487.781H495.978L495.575 106.326L495.172 86.8945L488.453 86.484C484.691 86.2103 481.197 86.484 480.659 87.0314Z" fill="white"/>
</g>
<defs>
<clipPath id="clip0_199_10">
<rect width="602" height="208" fill="white"/>
</clipPath>
</defs>
</svg>
