<svg width="732" height="140" viewBox="0 0 732 140" fill="none" xmlns="http://www.w3.org/2000/svg">
<g filter="url(#filter0_d_1_23)">
<path d="M10 66C10 32.8629 36.8629 6 70 6H662C695.137 6 722 32.8629 722 66C722 99.1371 695.137 126 662 126H70C36.8629 126 10 99.1371 10 66Z" fill="#3A3A3A"/>
<path d="M162 66C162 38.3858 184.386 16 212 16H662C689.614 16 712 38.3858 712 66C712 93.6142 689.614 116 662 116H212C184.386 116 162 93.6142 162 66Z" fill="#5B8C5A"/>
<path d="M202.591 77V30.4545H220.409C223.773 30.4545 226.568 30.9848 228.795 32.0455C231.038 33.0909 232.712 34.5227 233.818 36.3409C234.939 38.1591 235.5 40.2197 235.5 42.5227C235.5 44.4167 235.136 46.0379 234.409 47.3864C233.682 48.7197 232.705 49.803 231.477 50.6364C230.25 51.4697 228.879 52.0682 227.364 52.4318V52.8864C229.015 52.9773 230.598 53.4848 232.114 54.4091C233.644 55.3182 234.894 56.6061 235.864 58.2727C236.833 59.9394 237.318 61.9545 237.318 64.3182C237.318 66.7273 236.735 68.8939 235.568 70.8182C234.402 72.7273 232.644 74.2348 230.295 75.3409C227.947 76.447 224.992 77 221.432 77H202.591ZM211.023 69.9545H220.091C223.152 69.9545 225.356 69.3712 226.705 68.2045C228.068 67.0227 228.75 65.5076 228.75 63.6591C228.75 62.2803 228.409 61.0379 227.727 59.9318C227.045 58.8106 226.076 57.9318 224.818 57.2955C223.561 56.6439 222.061 56.3182 220.318 56.3182H211.023V69.9545ZM211.023 50.25H219.364C220.818 50.25 222.129 49.9848 223.295 49.4545C224.462 48.9091 225.379 48.1439 226.045 47.1591C226.727 46.1591 227.068 44.9773 227.068 43.6136C227.068 41.8106 226.432 40.3258 225.159 39.1591C223.902 37.9924 222.03 37.4091 219.545 37.4091H211.023V50.25ZM253.085 30.4545V77H244.653V30.4545H253.085ZM259.193 88.2273V70.1136H262.307C263.352 69.2803 264.33 68.1061 265.239 66.5909C266.148 65.0758 266.92 63 267.557 60.3636C268.193 57.7273 268.633 54.3182 268.875 50.1364L270.102 30.4545H299.852V70.1136H305.034V88.1818H296.943V77H267.284V88.2273H259.193ZM272.125 70.1136H291.761V37.5227H277.693L276.966 50.1364C276.769 53.303 276.451 56.1364 276.011 58.6364C275.572 61.1364 275.019 63.3409 274.352 65.25C273.686 67.1439 272.943 68.7652 272.125 70.1136ZM311.903 77V30.4545H342.176V37.5227H320.335V50.1591H340.608V57.2273H320.335V69.9318H342.358V77H311.903ZM392.369 53.7273C392.369 58.7424 391.43 63.0379 389.551 66.6136C387.688 70.1742 385.142 72.9015 381.915 74.7955C378.703 76.6894 375.059 77.6364 370.983 77.6364C366.907 77.6364 363.256 76.6894 360.028 74.7955C356.816 72.8864 354.271 70.1515 352.392 66.5909C350.528 63.0152 349.597 58.7273 349.597 53.7273C349.597 48.7121 350.528 44.4242 352.392 40.8636C354.271 37.2879 356.816 34.553 360.028 32.6591C363.256 30.7651 366.907 29.8182 370.983 29.8182C375.059 29.8182 378.703 30.7651 381.915 32.6591C385.142 34.553 387.688 37.2879 389.551 40.8636C391.43 44.4242 392.369 48.7121 392.369 53.7273ZM383.892 53.7273C383.892 50.197 383.339 47.2197 382.233 44.7955C381.142 42.3561 379.627 40.5152 377.688 39.2727C375.748 38.0152 373.513 37.3864 370.983 37.3864C368.453 37.3864 366.218 38.0152 364.278 39.2727C362.339 40.5152 360.816 42.3561 359.71 44.7955C358.619 47.2197 358.074 50.197 358.074 53.7273C358.074 57.2576 358.619 60.2424 359.71 62.6818C360.816 65.1061 362.339 66.947 364.278 68.2045C366.218 69.447 368.453 70.0682 370.983 70.0682C373.513 70.0682 375.748 69.447 377.688 68.2045C379.627 66.947 381.142 65.1061 382.233 62.6818C383.339 60.2424 383.892 57.2576 383.892 53.7273ZM400.341 77V30.4545H408.773V50.1591H430.341V30.4545H438.795V77H430.341V57.2273H408.773V77H400.341ZM453.943 77H444.943L461.33 30.4545H471.739L488.148 77H479.148L466.716 40H466.352L453.943 77ZM454.239 58.75H478.784V65.5227H454.239V58.75ZM524.21 30.4545V37.5227H502.71V77H494.278V30.4545H524.21ZM528.318 77V70L529.636 69.9318C531.424 69.8258 532.841 69.1818 533.886 68C534.947 66.8182 535.727 64.9167 536.227 62.2955C536.742 59.6742 537.083 56.1591 537.25 51.75L538.023 30.4545H568.523V77H560.273V37.3864H545.886L545.159 54.3636C544.947 59.4545 544.386 63.6742 543.477 67.0227C542.583 70.3712 541.114 72.8712 539.068 74.5227C537.038 76.1742 534.212 77 530.591 77H528.318ZM612.08 77H603.625V37.5H595.898C593.807 37.5 592.087 37.8106 590.739 38.4318C589.405 39.0379 588.413 39.9318 587.761 41.1136C587.125 42.2803 586.807 43.6894 586.807 45.3409C586.807 46.9924 587.125 48.3864 587.761 49.5227C588.398 50.6439 589.383 51.5 590.716 52.0909C592.064 52.6667 593.777 52.9545 595.852 52.9545H607.17V59.9545H594.716C591.14 59.9545 588.125 59.3636 585.67 58.1818C583.216 56.9848 581.352 55.2955 580.08 53.1136C578.822 50.9167 578.193 48.3258 578.193 45.3409C578.193 42.3712 578.814 39.7727 580.057 37.5455C581.314 35.303 583.163 33.5606 585.602 32.3182C588.042 31.0758 591.042 30.4545 594.602 30.4545H612.08V77ZM588.011 55.9091H597.216L585.898 77H576.489L588.011 55.9091ZM618.193 88.2273V70.1136H621.307C622.352 69.2803 623.33 68.1061 624.239 66.5909C625.148 65.0758 625.92 63 626.557 60.3636C627.193 57.7273 627.633 54.3182 627.875 50.1364L629.102 30.4545H658.852V70.1136H664.034V88.1818H655.943V77H626.284V88.2273H618.193ZM631.125 70.1136H650.761V37.5227H636.693L635.966 50.1364C635.769 53.303 635.451 56.1364 635.011 58.6364C634.572 61.1364 634.019 63.3409 633.352 65.25C632.686 67.1439 631.943 68.7652 631.125 70.1136Z" fill="white"/>
<path d="M304.447 106.164V101.325H305.31C305.604 101.078 305.879 100.727 306.135 100.271C306.391 99.8146 306.608 99.1989 306.787 98.4233C306.966 97.6477 307.089 96.6527 307.158 95.4382L307.464 89.9091H315.538V101.325H317.021V106.145H315.129V103H306.339V106.164H304.447ZM307.637 101.325H313.646V91.6094H309.254L309.05 95.4382C308.994 96.3629 308.903 97.1939 308.775 97.9311C308.651 98.6683 308.491 99.3203 308.295 99.8871C308.104 100.45 307.884 100.929 307.637 101.325ZM330.556 96.4545C330.556 97.8523 330.3 99.054 329.789 100.06C329.277 101.061 328.576 101.832 327.686 102.374C326.799 102.911 325.792 103.179 324.662 103.179C323.529 103.179 322.517 102.911 321.626 102.374C320.74 101.832 320.041 101.059 319.529 100.053C319.018 99.0476 318.762 97.848 318.762 96.4545C318.762 95.0568 319.018 93.8572 319.529 92.8558C320.041 91.8501 320.74 91.0788 321.626 90.5419C322.517 90.0007 323.529 89.7301 324.662 89.7301C325.792 89.7301 326.799 90.0007 327.686 90.5419C328.576 91.0788 329.277 91.8501 329.789 92.8558C330.3 93.8572 330.556 95.0568 330.556 96.4545ZM328.6 96.4545C328.6 95.3892 328.427 94.4922 328.082 93.7635C327.741 93.0305 327.272 92.4766 326.676 92.1016C326.083 91.7223 325.412 91.5327 324.662 91.5327C323.908 91.5327 323.235 91.7223 322.642 92.1016C322.05 92.4766 321.581 93.0305 321.236 93.7635C320.895 94.4922 320.725 95.3892 320.725 96.4545C320.725 97.5199 320.895 98.419 321.236 99.152C321.581 99.8807 322.05 100.435 322.642 100.814C323.235 101.189 323.908 101.376 324.662 101.376C325.412 101.376 326.083 101.189 326.676 100.814C327.272 100.435 327.741 99.8807 328.082 99.152C328.427 98.419 328.6 97.5199 328.6 96.4545ZM333.018 89.9091H335.415L339.583 100.085H339.736L343.904 89.9091H346.301V103H344.422V93.527H344.3L340.439 102.981H338.88L335.019 93.5206H334.898V103H333.018V89.9091ZM360.544 96.4545C360.544 97.8523 360.288 99.054 359.777 100.06C359.266 101.061 358.565 101.832 357.674 102.374C356.788 102.911 355.78 103.179 354.651 103.179C353.517 103.179 352.505 102.911 351.614 102.374C350.728 101.832 350.029 101.059 349.518 100.053C349.006 99.0476 348.751 97.848 348.751 96.4545C348.751 95.0568 349.006 93.8572 349.518 92.8558C350.029 91.8501 350.728 91.0788 351.614 90.5419C352.505 90.0007 353.517 89.7301 354.651 89.7301C355.78 89.7301 356.788 90.0007 357.674 90.5419C358.565 91.0788 359.266 91.8501 359.777 92.8558C360.288 93.8572 360.544 95.0568 360.544 96.4545ZM358.588 96.4545C358.588 95.3892 358.415 94.4922 358.07 93.7635C357.729 93.0305 357.261 92.4766 356.664 92.1016C356.072 91.7223 355.401 91.5327 354.651 91.5327C353.896 91.5327 353.223 91.7223 352.631 92.1016C352.038 92.4766 351.57 93.0305 351.224 93.7635C350.884 94.4922 350.713 95.3892 350.713 96.4545C350.713 97.5199 350.884 98.419 351.224 99.152C351.57 99.8807 352.038 100.435 352.631 100.814C353.223 101.189 353.896 101.376 354.651 101.376C355.401 101.376 356.072 101.189 356.664 100.814C357.261 100.435 357.729 99.8807 358.07 99.152C358.415 98.419 358.588 97.5199 358.588 96.4545ZM367.73 91.4176H370.089C371.086 91.4176 371.97 91.6371 372.742 92.076C373.517 92.5107 374.124 93.1222 374.563 93.9105C375.007 94.6946 375.228 95.6065 375.228 96.6463C375.228 97.6776 375.007 98.5831 374.563 99.3629C374.124 100.143 373.517 100.752 372.742 101.191C371.97 101.626 371.086 101.843 370.089 101.843H367.73C366.733 101.843 365.847 101.628 365.071 101.197C364.296 100.763 363.686 100.158 363.243 99.3821C362.804 98.6065 362.585 97.701 362.585 96.6655C362.585 95.6214 362.806 94.7053 363.249 93.9169C363.693 93.1286 364.3 92.5149 365.071 92.076C365.847 91.6371 366.733 91.4176 367.73 91.4176ZM367.73 93.1243C367.048 93.1243 366.467 93.267 365.985 93.5526C365.504 93.8338 365.135 94.2386 364.879 94.767C364.624 95.2955 364.496 95.9283 364.496 96.6655C364.496 97.3857 364.624 98.0057 364.879 98.5256C365.139 99.0412 365.51 99.4396 365.992 99.7209C366.473 99.9979 367.053 100.136 367.73 100.136H370.095C370.773 100.136 371.35 99.9979 371.828 99.7209C372.309 99.4396 372.676 99.0391 372.927 98.5192C373.183 97.995 373.311 97.3707 373.311 96.6463C373.311 95.9176 373.183 95.2912 372.927 94.767C372.676 94.2386 372.309 93.8338 371.828 93.5526C371.35 93.267 370.773 93.1243 370.095 93.1243H367.73ZM369.884 89.679V103.537H367.948V89.679H369.884ZM389.056 96.4545C389.056 97.8523 388.8 99.054 388.289 100.06C387.777 101.061 387.076 101.832 386.186 102.374C385.299 102.911 384.292 103.179 383.162 103.179C382.029 103.179 381.017 102.911 380.126 102.374C379.24 101.832 378.541 101.059 378.029 100.053C377.518 99.0476 377.262 97.848 377.262 96.4545C377.262 95.0568 377.518 93.8572 378.029 92.8558C378.541 91.8501 379.24 91.0788 380.126 90.5419C381.017 90.0007 382.029 89.7301 383.162 89.7301C384.292 89.7301 385.299 90.0007 386.186 90.5419C387.076 91.0788 387.777 91.8501 388.289 92.8558C388.8 93.8572 389.056 95.0568 389.056 96.4545ZM387.1 96.4545C387.1 95.3892 386.927 94.4922 386.582 93.7635C386.241 93.0305 385.772 92.4766 385.176 92.1016C384.583 91.7223 383.912 91.5327 383.162 91.5327C382.408 91.5327 381.735 91.7223 381.142 92.1016C380.55 92.4766 380.081 93.0305 379.736 93.7635C379.395 94.4922 379.225 95.3892 379.225 96.4545C379.225 97.5199 379.395 98.419 379.736 99.152C380.081 99.8807 380.55 100.435 381.142 100.814C381.735 101.189 382.408 101.376 383.162 101.376C383.912 101.376 384.583 101.189 385.176 100.814C385.772 100.435 386.241 99.8807 386.582 99.152C386.927 98.419 387.1 97.5199 387.1 96.4545ZM391.518 103V89.9091H393.493V95.598H400.02V89.9091H402.001V103H400.02V97.2919H393.493V103H391.518ZM404.878 89.9091H406.834V99.5227H406.955L413.616 89.9091H415.444V103H413.469V93.3991H413.347L406.699 103H404.878V89.9091ZM428.72 95.6236V97.2855H422.916V95.6236H428.72ZM447.057 94.1662H445.063C444.986 93.7401 444.843 93.3651 444.635 93.0412C444.426 92.7173 444.17 92.4425 443.868 92.2166C443.565 91.9908 443.226 91.8203 442.851 91.7053C442.48 91.5902 442.086 91.5327 441.669 91.5327C440.914 91.5327 440.239 91.7223 439.642 92.1016C439.05 92.4808 438.581 93.0369 438.236 93.7699C437.895 94.5028 437.725 95.3977 437.725 96.4545C437.725 97.5199 437.895 98.419 438.236 99.152C438.581 99.8849 439.052 100.439 439.649 100.814C440.245 101.189 440.917 101.376 441.662 101.376C442.076 101.376 442.468 101.321 442.838 101.21C443.213 101.095 443.552 100.927 443.855 100.705C444.157 100.484 444.413 100.213 444.622 99.8935C444.835 99.5696 444.982 99.1989 445.063 98.7812L447.057 98.7876C446.951 99.4311 446.744 100.023 446.437 100.565C446.135 101.102 445.745 101.566 445.267 101.958C444.794 102.346 444.253 102.646 443.644 102.859C443.034 103.072 442.37 103.179 441.65 103.179C440.516 103.179 439.506 102.911 438.62 102.374C437.733 101.832 437.034 101.059 436.523 100.053C436.016 99.0476 435.762 97.848 435.762 96.4545C435.762 95.0568 436.018 93.8572 436.529 92.8558C437.041 91.8501 437.74 91.0788 438.626 90.5419C439.512 90.0007 440.52 89.7301 441.65 89.7301C442.344 89.7301 442.992 89.8303 443.593 90.0305C444.198 90.2266 444.741 90.5163 445.223 90.8999C445.704 91.2791 446.103 91.7436 446.418 92.2933C446.733 92.8388 446.946 93.4631 447.057 94.1662ZM449.421 89.9091H451.377V99.5227H451.498L458.159 89.9091H459.987V103H458.012V93.3991H457.89L451.242 103H449.421V89.9091ZM473.741 94.1662H471.746C471.67 93.7401 471.527 93.3651 471.318 93.0412C471.109 92.7173 470.854 92.4425 470.551 92.2166C470.249 91.9908 469.91 91.8203 469.535 91.7053C469.164 91.5902 468.77 91.5327 468.352 91.5327C467.598 91.5327 466.923 91.7223 466.326 92.1016C465.734 92.4808 465.265 93.0369 464.92 93.7699C464.579 94.5028 464.408 95.3977 464.408 96.4545C464.408 97.5199 464.579 98.419 464.92 99.152C465.265 99.8849 465.736 100.439 466.332 100.814C466.929 101.189 467.6 101.376 468.346 101.376C468.759 101.376 469.151 101.321 469.522 101.21C469.897 101.095 470.236 100.927 470.538 100.705C470.841 100.484 471.097 100.213 471.305 99.8935C471.518 99.5696 471.665 99.1989 471.746 98.7812L473.741 98.7876C473.634 99.4311 473.428 100.023 473.121 100.565C472.818 101.102 472.428 101.566 471.951 101.958C471.478 102.346 470.937 102.646 470.327 102.859C469.718 103.072 469.053 103.179 468.333 103.179C467.2 103.179 466.19 102.911 465.303 102.374C464.417 101.832 463.718 101.059 463.207 100.053C462.7 99.0476 462.446 97.848 462.446 96.4545C462.446 95.0568 462.702 93.8572 463.213 92.8558C463.724 91.8501 464.423 91.0788 465.31 90.5419C466.196 90.0007 467.204 89.7301 468.333 89.7301C469.028 89.7301 469.675 89.8303 470.276 90.0305C470.881 90.2266 471.425 90.5163 471.906 90.8999C472.388 91.2791 472.786 91.7436 473.102 92.2933C473.417 92.8388 473.63 93.4631 473.741 94.1662ZM475.459 91.6094V89.9091H485.59V91.6094H481.506V103H479.537V91.6094H475.459ZM487.829 103V89.9091H496.036V91.6094H489.804V95.598H495.608V97.2919H489.804V101.3H496.113V103H487.829ZM498.675 89.9091H501.072L505.239 100.085H505.393L509.56 89.9091H511.957V103H510.078V93.527H509.956L506.096 102.981H504.536L500.675 93.5206H500.554V103H498.675V89.9091ZM514.829 89.9091H516.785V99.5227H516.906L523.567 89.9091H525.395V103H523.42V93.3991H523.298L516.651 103H514.829V89.9091ZM533.04 103V89.9091H541.202V91.6094H535.015V95.1889H537.942C538.914 95.1889 539.739 95.3466 540.416 95.6619C541.098 95.9773 541.618 96.4226 541.976 96.9979C542.338 97.5732 542.519 98.2507 542.519 99.0305C542.519 99.8104 542.338 100.499 541.976 101.095C541.618 101.692 541.098 102.158 540.416 102.495C539.739 102.832 538.914 103 537.942 103H533.04ZM535.015 101.338H537.942C538.505 101.338 538.98 101.227 539.368 101.006C539.76 100.784 540.056 100.496 540.256 100.143C540.461 99.7891 540.563 99.4098 540.563 99.005C540.563 98.4169 540.337 97.9119 539.886 97.4901C539.434 97.0639 538.786 96.8509 537.942 96.8509H535.015V101.338ZM544.852 103V89.9091H553.06V91.6094H546.827V95.598H552.631V97.2919H546.827V101.3H553.136V103H544.852ZM560.077 103.179C559.199 103.179 558.415 103.028 557.724 102.725C557.038 102.423 556.495 102.003 556.094 101.466C555.698 100.925 555.485 100.298 555.455 99.5866H557.462C557.488 99.9744 557.618 100.311 557.852 100.597C558.091 100.878 558.402 101.095 558.785 101.249C559.169 101.402 559.595 101.479 560.064 101.479C560.579 101.479 561.035 101.389 561.432 101.21C561.832 101.031 562.145 100.782 562.371 100.462C562.597 100.138 562.71 99.7656 562.71 99.3438C562.71 98.9048 562.597 98.5192 562.371 98.1868C562.15 97.8501 561.824 97.5859 561.393 97.3942C560.967 97.2024 560.452 97.1065 559.846 97.1065H558.741V95.4957H559.846C560.332 95.4957 560.758 95.4084 561.125 95.2337C561.496 95.0589 561.785 94.8161 561.994 94.505C562.203 94.1896 562.307 93.821 562.307 93.3991C562.307 92.9943 562.216 92.6428 562.032 92.3445C561.854 92.0419 561.598 91.8054 561.265 91.6349C560.937 91.4645 560.55 91.3793 560.102 91.3793C559.676 91.3793 559.278 91.4581 558.907 91.6158C558.54 91.7692 558.242 91.9908 558.012 92.2805C557.782 92.5661 557.658 92.9091 557.641 93.3097H555.73C555.751 92.6023 555.96 91.9801 556.356 91.4432C556.757 90.9062 557.285 90.4865 557.942 90.1839C558.598 89.8814 559.327 89.7301 560.128 89.7301C560.967 89.7301 561.692 89.8942 562.301 90.2223C562.915 90.5462 563.388 90.9787 563.72 91.5199C564.057 92.0611 564.223 92.6534 564.219 93.2969C564.223 94.0298 564.018 94.652 563.605 95.1634C563.196 95.6747 562.65 96.0178 561.969 96.1925V96.2947C562.838 96.4268 563.511 96.772 563.988 97.3303C564.47 97.8885 564.709 98.581 564.704 99.4077C564.709 100.128 564.508 100.773 564.104 101.344C563.703 101.915 563.155 102.365 562.461 102.693C561.766 103.017 560.971 103.179 560.077 103.179ZM577.533 89.9091V103H575.564V91.5966H569.403V103H567.434V89.9091H577.533ZM580.553 103V89.9091H588.761V91.6094H582.529V95.598H588.333V97.2919H582.529V101.3H588.838V103H580.553ZM599.165 103L594.768 97.1321H593.374V103H591.399V89.9091H593.374V95.4382H594.02L598.967 89.9091H601.377L596.142 95.7706L601.575 103H599.165ZM603.405 89.9091H605.361V99.5227H605.482L612.143 89.9091H613.971V103H611.996V93.3991H611.874L605.227 103H603.405V89.9091Z" fill="#313131"/>
<path d="M39.517 67V49.5455H51.0994V52.5881H43.2074V55.9972H46.0455C47.4261 55.9972 48.6165 56.2216 49.6165 56.6705C50.6222 57.1136 51.3977 57.7415 51.9432 58.554C52.4886 59.3665 52.7614 60.3239 52.7614 61.4261C52.7614 62.5227 52.4886 63.4915 51.9432 64.3324C51.3977 65.1676 50.6222 65.821 49.6165 66.2926C48.6165 66.7642 47.4261 67 46.0455 67H39.517ZM43.2074 64.0341H46.0455C46.7045 64.0341 47.2614 63.9148 47.7159 63.6761C48.1705 63.4318 48.5142 63.1108 48.7472 62.7131C48.9858 62.3097 49.1051 61.8693 49.1051 61.392C49.1051 60.6989 48.8409 60.1136 48.3125 59.6364C47.7898 59.1534 47.0341 58.9119 46.0455 58.9119H43.2074V64.0341ZM55.1499 67V49.5455H66.9112V52.5881H58.8402V56.7472H66.3061V59.7898H58.8402V63.9574H66.9453V67H55.1499ZM76.1946 67.2386C74.9219 67.2386 73.7884 67.0199 72.794 66.5824C71.8054 66.1392 71.0241 65.5312 70.4503 64.7585C69.8821 63.9801 69.5895 63.0824 69.5724 62.0653H73.2884C73.3111 62.4915 73.4503 62.8665 73.706 63.1903C73.9673 63.5085 74.3139 63.7557 74.7457 63.9318C75.1776 64.108 75.6634 64.196 76.2031 64.196C76.7656 64.196 77.2628 64.0966 77.6946 63.8977C78.1264 63.6989 78.4645 63.4233 78.7088 63.071C78.9531 62.7187 79.0753 62.3125 79.0753 61.8523C79.0753 61.3864 78.9446 60.9744 78.6832 60.6165C78.4276 60.2528 78.0582 59.9687 77.5753 59.7642C77.098 59.5597 76.5298 59.4574 75.8707 59.4574H74.2429V56.7472H75.8707C76.4276 56.7472 76.919 56.6506 77.3452 56.4574C77.777 56.2642 78.1122 55.9972 78.3509 55.6562C78.5895 55.3097 78.7088 54.9062 78.7088 54.446C78.7088 54.0085 78.6037 53.625 78.3935 53.2955C78.1889 52.9602 77.8991 52.6989 77.5241 52.5114C77.1548 52.3239 76.723 52.2301 76.2287 52.2301C75.7287 52.2301 75.2713 52.321 74.8565 52.5028C74.4418 52.679 74.1094 52.9318 73.8594 53.2614C73.6094 53.5909 73.4759 53.9773 73.4588 54.4205H69.9219C69.9389 53.4148 70.2259 52.5284 70.7827 51.7614C71.3395 50.9943 72.0895 50.3949 73.0327 49.9631C73.9815 49.5256 75.0526 49.3068 76.2457 49.3068C77.4503 49.3068 78.5043 49.5256 79.4077 49.9631C80.3111 50.4006 81.0128 50.9915 81.5128 51.7358C82.0185 52.4744 82.2685 53.304 82.2628 54.2244C82.2685 55.2017 81.9645 56.017 81.3509 56.6705C80.7429 57.3239 79.9503 57.7386 78.973 57.9148V58.0511C80.2571 58.2159 81.2344 58.6619 81.9048 59.3892C82.581 60.1108 82.9162 61.0142 82.9105 62.0994C82.9162 63.0938 82.6293 63.9773 82.0497 64.75C81.4759 65.5227 80.6832 66.1307 79.6719 66.5739C78.6605 67.017 77.5014 67.2386 76.1946 67.2386ZM100.504 49.5455V67H96.8558V52.5455H89.799V67H86.1513V49.5455H100.504ZM104.017 67V49.5455H115.778V52.5881H107.707V56.7472H115.173V59.7898H107.707V63.9574H115.812V67H104.017ZM129.272 67L123.664 59.5597H122.403V67H118.712V49.5455H122.403V56.517H123.144L128.94 49.5455H133.533L126.724 57.642L133.849 67H129.272ZM138.713 67H134.759L140.784 49.5455H145.54L151.557 67H147.602L143.23 53.5341H143.094L138.713 67ZM138.466 60.1392H147.807V63.0199H138.466V60.1392Z" fill="white"/>
<path d="M48.4254 78.4588L48.2912 82.4062H46.5014V80H45.7855V78.4588H48.4254ZM39.0043 80V69.8182H40.7741V78.4688H45.348V69.8182H47.1328V80H39.0043ZM49.9281 80V69.8182H56.5502V71.3643H51.7725V74.1286H56.2072V75.6747H51.7725V78.4538H56.59V80H49.9281ZM58.432 80V69.8182H60.2765V74.1286H64.9945V69.8182H66.8439V80H64.9945V75.6747H60.2765V80H58.432ZM68.4025 71.3643V69.8182H76.5261V71.3643H73.3791V80H71.5495V71.3643H68.4025ZM78.0922 80V69.8182H81.9103C82.6925 69.8182 83.3488 69.964 83.8791 70.2557C84.4127 70.5473 84.8154 70.9484 85.0872 71.4588C85.3623 71.9659 85.4998 72.5426 85.4998 73.1889C85.4998 73.8419 85.3623 74.4219 85.0872 74.929C84.8121 75.4361 84.4061 75.8355 83.8691 76.1271C83.3322 76.4155 82.671 76.5597 81.8855 76.5597H79.3549V75.0433H81.6369C82.0943 75.0433 82.4688 74.9638 82.7605 74.8047C83.0521 74.6456 83.2676 74.4268 83.4068 74.1484C83.5493 73.87 83.6206 73.5502 83.6206 73.1889C83.6206 72.8277 83.5493 72.5095 83.4068 72.2344C83.2676 71.9593 83.0505 71.7455 82.7555 71.593C82.4638 71.4373 82.0877 71.3594 81.627 71.3594H79.9366V80H78.0922Z" fill="white"/>
<path d="M87 75C87 71.6863 89.6863 69 93 69H147C150.314 69 153 71.6863 153 75C153 78.3137 150.314 81 147 81H93C89.6863 81 87 78.3137 87 75Z" fill="white"/>
<path d="M91.7429 79.0938C91.4844 79.0938 91.2628 79.0028 91.0781 78.821C90.8935 78.6392 90.8026 78.4176 90.8054 78.1562C90.8026 77.9006 90.8935 77.6818 91.0781 77.5C91.2628 77.3182 91.4844 77.2273 91.7429 77.2273C91.9929 77.2273 92.2102 77.3182 92.3949 77.5C92.5824 77.6818 92.6776 77.9006 92.6804 78.1562C92.6776 78.3295 92.6321 78.4872 92.544 78.6293C92.4588 78.7713 92.3452 78.8849 92.2031 78.9702C92.0639 79.0526 91.9105 79.0938 91.7429 79.0938ZM97.1282 79.1278C96.4748 79.1278 95.9137 78.9844 95.445 78.6974C94.979 78.4105 94.6197 78.0142 94.3668 77.5085C94.1168 77 93.9918 76.4148 93.9918 75.7528C93.9918 75.0881 94.1197 74.5014 94.3754 73.9929C94.631 73.4815 94.9918 73.0838 95.4577 72.7997C95.9265 72.5128 96.4805 72.3693 97.1197 72.3693C97.6509 72.3693 98.1211 72.4673 98.5302 72.6634C98.9421 72.8565 99.2702 73.1307 99.5146 73.4858C99.7589 73.8381 99.8981 74.25 99.9322 74.7216H98.4577C98.3981 74.4062 98.256 74.1435 98.0316 73.9332C97.81 73.7202 97.5131 73.6136 97.141 73.6136C96.8256 73.6136 96.5487 73.6989 96.31 73.8693C96.0714 74.0369 95.8853 74.2784 95.7518 74.5938C95.6211 74.9091 95.5558 75.2869 95.5558 75.7273C95.5558 76.1733 95.6211 76.5568 95.7518 76.8778C95.8825 77.196 96.0657 77.4418 96.3015 77.6151C96.5401 77.7855 96.82 77.8707 97.141 77.8707C97.3683 77.8707 97.5714 77.8281 97.7504 77.7429C97.9322 77.6548 98.0842 77.5284 98.2063 77.3636C98.3285 77.1989 98.4123 76.9986 98.4577 76.7628H99.9322C99.8952 77.2259 99.7589 77.6364 99.5231 77.9943C99.2873 78.3494 98.9663 78.6278 98.56 78.8295C98.1538 79.0284 97.6765 79.1278 97.1282 79.1278ZM104.054 79.1278C103.415 79.1278 102.861 78.9872 102.392 78.706C101.923 78.4247 101.56 78.0312 101.301 77.5256C101.045 77.0199 100.918 76.429 100.918 75.7528C100.918 75.0767 101.045 74.4844 101.301 73.9759C101.56 73.4673 101.923 73.0724 102.392 72.7912C102.861 72.5099 103.415 72.3693 104.054 72.3693C104.693 72.3693 105.247 72.5099 105.716 72.7912C106.185 73.0724 106.547 73.4673 106.803 73.9759C107.061 74.4844 107.19 75.0767 107.19 75.7528C107.19 76.429 107.061 77.0199 106.803 77.5256C106.547 78.0312 106.185 78.4247 105.716 78.706C105.247 78.9872 104.693 79.1278 104.054 79.1278ZM104.062 77.892C104.409 77.892 104.699 77.7969 104.932 77.6065C105.165 77.4134 105.338 77.1548 105.452 76.831C105.568 76.5071 105.626 76.1463 105.626 75.7486C105.626 75.348 105.568 74.9858 105.452 74.6619C105.338 74.3352 105.165 74.0753 104.932 73.8821C104.699 73.6889 104.409 73.5923 104.062 73.5923C103.707 73.5923 103.412 73.6889 103.176 73.8821C102.943 74.0753 102.768 74.3352 102.652 74.6619C102.538 74.9858 102.482 75.348 102.482 75.7486C102.482 76.1463 102.538 76.5071 102.652 76.831C102.768 77.1548 102.943 77.4134 103.176 77.6065C103.412 77.7969 103.707 77.892 104.062 77.892ZM108.5 79V72.4545H109.974V73.5668H110.051C110.187 73.1918 110.413 72.8991 110.728 72.6889C111.044 72.4759 111.42 72.3693 111.858 72.3693C112.301 72.3693 112.674 72.4773 112.978 72.6932C113.285 72.9062 113.501 73.1974 113.626 73.5668H113.694C113.839 73.2031 114.083 72.9134 114.427 72.6974C114.774 72.4787 115.184 72.3693 115.659 72.3693C116.261 72.3693 116.752 72.5597 117.133 72.9403C117.514 73.321 117.704 73.8764 117.704 74.6065V79H116.157V74.8452C116.157 74.4389 116.049 74.142 115.833 73.9545C115.618 73.7642 115.353 73.669 115.041 73.669C114.669 73.669 114.377 73.7855 114.167 74.0185C113.96 74.2486 113.856 74.5483 113.856 74.9176V79H112.343V74.7812C112.343 74.4432 112.241 74.1733 112.037 73.9716C111.835 73.7699 111.571 73.669 111.244 73.669C111.022 73.669 110.821 73.7259 110.639 73.8395C110.457 73.9503 110.312 74.108 110.204 74.3125C110.096 74.5142 110.042 74.75 110.042 75.0199V79H108.5ZM120.219 79.0938C119.961 79.0938 119.739 79.0028 119.555 78.821C119.37 78.6392 119.279 78.4176 119.282 78.1562C119.279 77.9006 119.37 77.6818 119.555 77.5C119.739 77.3182 119.961 77.2273 120.219 77.2273C120.469 77.2273 120.687 77.3182 120.871 77.5C121.059 77.6818 121.154 77.9006 121.157 78.1562C121.154 78.3295 121.109 78.4872 121.021 78.6293C120.935 78.7713 120.822 78.8849 120.68 78.9702C120.54 79.0526 120.387 79.0938 120.219 79.0938ZM126.922 76.2472V72.4545H128.464V79H126.968V77.8366H126.9C126.752 78.2031 126.51 78.5028 126.172 78.7358C125.836 78.9687 125.423 79.0852 124.931 79.0852C124.502 79.0852 124.123 78.9901 123.794 78.7997C123.467 78.6065 123.211 78.3267 123.027 77.9602C122.842 77.5909 122.75 77.1449 122.75 76.6222V72.4545H124.292V76.3835C124.292 76.7983 124.406 77.1278 124.633 77.3722C124.86 77.6165 125.159 77.7386 125.528 77.7386C125.755 77.7386 125.975 77.6832 126.189 77.5724C126.402 77.4616 126.576 77.2969 126.713 77.0781C126.852 76.8565 126.922 76.5795 126.922 76.2472ZM131.934 79.1321C131.519 79.1321 131.146 79.0582 130.813 78.9105C130.484 78.7599 130.222 78.5384 130.029 78.2457C129.839 77.9531 129.744 77.5923 129.744 77.1634C129.744 76.794 129.812 76.4886 129.948 76.2472C130.085 76.0057 130.271 75.8125 130.506 75.6676C130.742 75.5227 131.008 75.4134 131.303 75.3395C131.602 75.2628 131.91 75.2074 132.228 75.1733C132.612 75.1335 132.923 75.098 133.161 75.0668C133.4 75.0327 133.573 74.9815 133.681 74.9134C133.792 74.8423 133.847 74.733 133.847 74.5852V74.5597C133.847 74.2386 133.752 73.9901 133.562 73.8139C133.371 73.6378 133.097 73.5497 132.739 73.5497C132.362 73.5497 132.062 73.6321 131.84 73.7969C131.621 73.9616 131.474 74.1562 131.397 74.3807L129.957 74.1761C130.07 73.7784 130.258 73.446 130.519 73.179C130.781 72.9091 131.1 72.7074 131.478 72.5739C131.856 72.4375 132.273 72.3693 132.731 72.3693C133.046 72.3693 133.36 72.4062 133.673 72.4801C133.985 72.554 134.271 72.6761 134.529 72.8466C134.788 73.0142 134.995 73.2429 135.151 73.5327C135.31 73.8224 135.39 74.1847 135.39 74.6193V79H133.907V78.1009H133.856C133.762 78.2827 133.63 78.4531 133.46 78.6122C133.292 78.7685 133.08 78.8949 132.825 78.9915C132.572 79.0852 132.275 79.1321 131.934 79.1321ZM132.335 77.9986C132.644 77.9986 132.913 77.9375 133.14 77.8153C133.367 77.6903 133.542 77.5256 133.664 77.321C133.789 77.1165 133.852 76.8935 133.852 76.652V75.8807C133.803 75.9205 133.721 75.9574 133.604 75.9915C133.491 76.0256 133.363 76.0554 133.221 76.081C133.079 76.1065 132.938 76.1293 132.799 76.1491C132.66 76.169 132.539 76.1861 132.437 76.2003C132.207 76.2315 132.001 76.2827 131.819 76.3537C131.637 76.4247 131.494 76.5241 131.388 76.652C131.283 76.777 131.231 76.9389 131.231 77.1378C131.231 77.4219 131.335 77.6364 131.542 77.7812C131.749 77.9261 132.013 77.9986 132.335 77.9986Z" fill="black"/>
</g>
<defs>
<filter id="filter0_d_1_23" x="0" y="0" width="732" height="140" filterUnits="userSpaceOnUse" color-interpolation-filters="sRGB">
<feFlood flood-opacity="0" result="BackgroundImageFix"/>
<feColorMatrix in="SourceAlpha" type="matrix" values="0 0 0 0 0 0 0 0 0 0 0 0 0 0 0 0 0 0 127 0" result="hardAlpha"/>
<feOffset dy="4"/>
<feGaussianBlur stdDeviation="5"/>
<feComposite in2="hardAlpha" operator="out"/>
<feColorMatrix type="matrix" values="0 0 0 0 0 0 0 0 0 0 0 0 0 0 0 0 0 0 0.5 0"/>
<feBlend mode="normal" in2="BackgroundImageFix" result="effect1_dropShadow_1_23"/>
<feBlend mode="normal" in="SourceGraphic" in2="effect1_dropShadow_1_23" result="shape"/>
</filter>
</defs>
</svg>
